<svg width="30" height="31" viewBox="0 0 30 31" fill="none" xmlns="http://www.w3.org/2000/svg">
<path d="M22.5 3.69043H28.5C28.8978 3.69043 29.2794 3.84846 29.5607 4.12977C29.842 4.41107 30 4.7926 30 5.19043V29.1904C30 29.5883 29.842 29.9698 29.5607 30.2511C29.2794 30.5324 28.8978 30.6904 28.5 30.6904H1.5C1.10218 30.6904 0.720644 30.5324 0.43934 30.2511C0.158035 29.9698 0 29.5883 0 29.1904V5.19043C0 4.7926 0.158035 4.41107 0.43934 4.12977C0.720644 3.84846 1.10218 3.69043 1.5 3.69043H7.5V0.69043H10.5V3.69043H19.5V0.69043H22.5V3.69043ZM3 12.6904V27.6904H27V12.6904H3ZM6 18.6904H13.5V24.6904H6V18.6904Z" fill="#707070"/>
</svg>
