<svg width="61" height="61" viewBox="0 0 61 61" fill="none" xmlns="http://www.w3.org/2000/svg">
<path d="M56.7386 24.0938C49.1488 31.6837 40.9616 29.8622 31.536 27.9448C21.7785 25.8588 10.6973 23.4284 0.740782 33.385L4.07697 36.7211C12.3197 28.4784 21.2503 30.3904 30.6777 32.4729C40.0218 34.4719 50.7711 36.7337 60.0748 27.43L56.7386 24.0938Z" fill="url(#paint0_linear_4730_230)"/>
<path d="M27.4303 60.0745L24.0941 56.7383C32.3369 48.4956 30.4248 39.565 28.3424 30.1375C26.3434 20.7935 24.0816 10.0442 33.3853 0.740479L36.7214 4.07667C29.1316 11.6665 30.9531 19.8536 32.8705 29.2793C34.9565 39.0367 37.3869 50.1179 27.4303 60.0745Z" fill="url(#paint1_linear_4730_230)"/>
<path d="M52.1508 28.4658L29.6315 5.9465C29.1311 5.44607 29.1239 4.786 29.6136 4.29634C30.1032 3.80667 30.7633 3.81384 31.2637 4.31427L53.783 26.8336C54.2835 27.334 54.2906 27.9941 53.801 28.4837C53.3113 28.9734 52.6512 28.9662 52.1508 28.4658ZM48.0523 30.8962L28.0352 10.879C27.5347 10.3786 27.5276 9.71855 28.0172 9.22888C28.5069 8.73921 29.167 8.74639 29.6674 9.24682L49.6845 29.264C50.185 29.7644 50.1921 30.4245 49.7025 30.9141C49.2128 31.4038 48.5527 31.3966 48.0523 30.8962ZM43.1198 32.4925L26.4388 15.8116C25.9384 15.3112 25.9312 14.6511 26.4209 14.1614C26.9105 13.6718 27.5706 13.6789 28.071 14.1794L44.752 30.8603C45.2524 31.3607 45.2596 32.0208 44.7699 32.5105C44.2803 33.0002 43.6202 32.993 43.1198 32.4925ZM35.6851 31.5868L27.3446 23.2463C26.8442 22.7458 26.837 22.0858 27.3267 21.5961C27.8163 21.1064 28.4764 21.1136 28.9768 21.614L37.3173 29.9545C37.8177 30.455 37.8249 31.115 37.3352 31.6047C36.8456 32.0944 36.1855 32.0872 35.6851 31.5868Z" fill="url(#paint2_linear_4730_230)"/>
<path d="M28.2105 55.9581L5.6912 33.4388C5.19077 32.9384 5.1836 32.2783 5.67326 31.7887C6.16293 31.299 6.82299 31.3062 7.32342 31.8066L29.8427 54.3259C30.3432 54.8263 30.3503 55.4864 29.8607 55.976C29.371 56.4657 28.7109 56.4585 28.2105 55.9581ZM29.8069 51.0256L9.78969 31.0084C9.28927 30.508 9.28209 29.8479 9.77176 29.3583C10.2614 28.8686 10.9215 28.8758 11.4219 29.3762L31.4391 49.3933C31.9395 49.8938 31.9467 50.5538 31.457 51.0435C30.9673 51.5332 30.3073 51.526 29.8069 51.0256ZM31.4032 46.093L14.7222 29.4121C14.2218 28.9116 14.2146 28.2516 14.7043 27.7619C15.194 27.2722 15.854 27.2794 16.3545 27.7798L33.0354 44.4608C33.5359 44.9612 33.543 45.6213 33.0534 46.111C32.5637 46.6006 31.9036 46.5935 31.4032 46.093ZM30.4974 38.6583L22.1569 30.3179C21.6565 29.8174 21.6493 29.1574 22.139 28.6677C22.6287 28.178 23.2887 28.1852 23.7891 28.6856L32.1296 37.0261C32.6301 37.5265 32.6372 38.1866 32.1476 38.6763C31.6579 39.1659 30.9978 39.1588 30.4974 38.6583Z" fill="url(#paint3_linear_4730_230)"/>
<defs>
<linearGradient id="paint0_linear_4730_230" x1="46.73" y1="14.0852" x2="14.0856" y2="46.7297" gradientUnits="userSpaceOnUse">
<stop offset="0.139423" stop-color="#333333"/>
<stop offset="0.918269" stop-color="#006400"/>
</linearGradient>
<linearGradient id="paint1_linear_4730_230" x1="46.73" y1="14.0852" x2="14.0856" y2="46.7297" gradientUnits="userSpaceOnUse">
<stop offset="0.971154" stop-color="#006400"/>
<stop offset="0.971254" stop-color="#333333"/>
</linearGradient>
<linearGradient id="paint2_linear_4730_230" x1="42.5234" y1="15.5739" x2="31.0978" y2="26.9995" gradientUnits="userSpaceOnUse">
<stop offset="0.971154" stop-color="#006400"/>
<stop offset="0.971254" stop-color="#333333"/>
</linearGradient>
<linearGradient id="paint3_linear_4730_230" x1="28.3764" y1="33.2729" x2="16.9508" y2="44.6985" gradientUnits="userSpaceOnUse">
<stop stop-color="#333333" stop-opacity="0.2"/>
<stop offset="1" stop-color="#006400"/>
</linearGradient>
</defs>
</svg>
