<svg width="46" height="31" viewBox="0 0 46 31" fill="none" xmlns="http://www.w3.org/2000/svg">
<path d="M0 10.2365C0 9.38679 0.688792 8.698 1.53846 8.698C2.38813 8.698 3.07692 9.38679 3.07692 10.2365V22.949C3.07692 23.7987 2.38813 24.4875 1.53846 24.4875C0.688792 24.4875 0 23.7987 0 22.949V10.2365Z" fill="#8A8585"/>
<path d="M42.7705 10.2365C42.7705 9.38679 43.4593 8.698 44.309 8.698C45.1586 8.698 45.8474 9.38679 45.8474 10.2365V22.949C45.8474 23.7987 45.1586 24.4875 44.309 24.4875C43.4593 24.4875 42.7705 23.7987 42.7705 22.949V10.2365Z" fill="#8A8585"/>
<rect x="5.07715" y="3.96118" width="3.07692" height="23.6842" rx="1.53846" fill="#8A8585"/>
<path d="M37.6934 5.49964C37.6934 4.64997 38.3822 3.96118 39.2318 3.96118C40.0815 3.96118 40.7703 4.64997 40.7703 5.49964V26.1069C40.7703 26.9566 40.0815 27.6454 39.2318 27.6454C38.3822 27.6454 37.6934 26.9566 37.6934 26.1069V5.49964Z" fill="#8A8585"/>
<rect x="10.1543" y="0.803223" width="3.07692" height="30" rx="1.53846" fill="#8A8585"/>
<rect x="32.6162" y="0.803223" width="3.07692" height="30" rx="1.53846" fill="#8A8585"/>
<path d="M15.2314 15.8035C15.2314 14.4954 16.2918 13.4351 17.5999 13.4351H28.2476C29.5557 13.4351 30.6161 14.4954 30.6161 15.8035C30.6161 17.1115 29.5557 18.1719 28.2476 18.1719H17.5999C16.2918 18.1719 15.2314 17.1115 15.2314 15.8035Z" fill="#8A8585"/>
</svg>
