<svg width="30" height="33" viewBox="0 0 30 33" fill="none" xmlns="http://www.w3.org/2000/svg">
<path d="M4.73684 25.9469H7.89474V29.1048H26.8421V3.84107H7.89474V6.99904H4.73684V2.26209C4.73684 1.84332 4.90319 1.4417 5.19931 1.14558C5.49541 0.849462 5.89703 0.683105 6.31579 0.683105H28.4211C28.8398 0.683105 29.2414 0.849462 29.5375 1.14558C29.8336 1.4417 30 1.84332 30 2.26209V30.6838C30 31.1026 29.8336 31.5042 29.5375 31.8003C29.2414 32.0964 28.8398 32.2628 28.4211 32.2628H6.31579C5.89703 32.2628 5.49541 32.0964 5.19931 31.8003C4.90319 31.5042 4.73684 31.1026 4.73684 30.6838V25.9469ZM7.89474 14.894H18.9474V18.0519H7.89474V22.7889L0 16.4729L7.89474 10.157V14.894Z" fill="#707070"/>
</svg>
