<svg width="38" height="38" viewBox="0 0 38 38" fill="none" xmlns="http://www.w3.org/2000/svg">
<path d="M16.0119 0.754069C14.8916 0.975284 14.227 1.38611 14.227 1.86015C14.227 2.00236 14.246 2.83981 14.246 3.74048C14.284 5.36799 14.1701 6.25285 13.8473 7.27992C13.7334 7.62755 13.6954 7.67495 13.4865 7.64335C13.3536 7.62755 12.727 7.61175 12.0625 7.59595C10.8852 7.58014 10.8662 7.58014 10.1637 7.88037C9.76495 8.03838 9.17633 8.3702 8.85354 8.60722C8.03707 9.20766 7.88517 9.27086 7.79023 9.04965C7.71428 8.89164 7.77125 8.82843 8.16999 8.57561C9.42317 7.75396 10.0688 6.63208 10.0688 5.35219C10.0688 4.34092 9.80292 3.75628 9.34722 3.75628C9.04342 3.75628 8.03707 4.34092 7.58137 4.76755C7.12567 5.20998 6.68895 5.92103 6.51806 6.48987C6.44211 6.71108 6.38515 6.9007 6.36616 6.9165C6.34717 6.9323 6.19527 6.83749 6.00539 6.69528C5.16994 6.09484 4.44841 5.90523 4.20157 6.22125C4.04967 6.42666 4.22056 6.60048 4.7712 6.8691C5.56868 7.26412 6.29021 7.91197 6.48009 8.4334C6.51806 8.54401 6.66996 8.82843 6.78389 9.06545C7.0687 9.57108 7.04971 9.60269 6.13831 9.66589C5.79653 9.69749 5.30285 9.7449 5.03702 9.7923C2.96737 10.0925 1.20152 12.0203 1.18253 13.948V14.4062L0.840753 14.1534C0.479988 13.8848 0.176185 13.869 0.00529637 14.0744C-0.127617 14.2482 2.28381 37.7128 2.43572 37.8551C2.58762 38.0131 34.6767 38.0131 34.8286 37.8551C34.9805 37.697 37.392 14.2324 37.2591 14.0744C37.0122 13.7584 36.7654 13.869 35.7021 14.738L34.6767 15.5913L34.9426 14.8329C36.6705 9.98191 36.3666 5.62081 34.1451 3.78788C33.0248 2.87142 31.7716 2.6028 30.1577 2.95042C27.6703 3.48766 24.7652 5.62081 22.4107 8.67042C21.8791 9.34987 21.936 9.38147 21.4613 8.18059C20.8348 6.63208 20.7208 6.00003 20.6639 3.69307L20.6069 1.60733L20.2271 1.33871C19.6385 0.927881 18.86 0.738268 17.6258 0.690865C16.9613 0.659262 16.3916 0.690864 16.0119 0.754069ZM19.2778 1.55993C19.9993 1.86015 19.6765 2.11296 18.3284 2.23937C16.9423 2.38158 15.2144 2.12876 15.2144 1.79694C15.2144 1.49672 16.0309 1.35451 17.6068 1.38611C18.6702 1.40191 18.955 1.43352 19.2778 1.55993ZM16.6575 3.01363C17.6068 3.12423 18.7461 2.99783 19.5436 2.74501C19.6955 2.6976 19.7145 2.74501 19.7145 3.17164V3.64567L19.2588 3.80368C18.5562 4.0249 16.1068 4.0091 15.5562 3.78788C15.1764 3.62987 15.1764 3.61407 15.1385 3.17164L15.1005 2.71341L15.4992 2.82401C15.7271 2.88722 16.2397 2.98202 16.6575 3.01363ZM32.5311 3.67727C33.2527 3.89849 34.0691 4.56213 34.4679 5.25738C35.4932 7.07451 35.5882 9.69749 34.7147 12.9367C34.4679 13.8216 33.5375 16.3656 33.3476 16.6026C33.2717 16.6974 32.9109 16.4288 31.5628 15.3069C30.2906 14.264 29.8159 13.9006 29.645 13.9006C29.4551 13.9006 28.9615 14.264 27.6893 15.3227L25.9614 16.7448L24.9171 15.8599L23.8538 14.9593V13.4424C23.8538 12.2731 23.8158 11.799 23.6829 11.4514C23.493 10.9142 23.1702 10.4401 22.8285 10.1715C22.6955 10.0609 22.5816 9.91871 22.5816 9.8555C22.5816 9.7923 22.9424 9.28666 23.3791 8.73363C26.5121 4.78335 29.9678 2.87142 32.5311 3.67727ZM19.9803 5.90523C20.1892 7.31153 20.9107 9.28666 21.4803 9.95031C21.6322 10.1241 21.8031 10.3295 21.8411 10.4085C21.8981 10.4875 22.05 10.6772 22.2019 10.8352C22.7525 11.4356 22.8854 11.8148 22.9234 12.9999L22.9804 14.0902L22.7335 13.948C22.6006 13.869 22.4107 13.8216 22.3348 13.8374C22.2588 13.8532 21.3854 14.501 20.417 15.2753L18.6322 16.6974L18.0626 16.2233L17.4929 15.7493L17.7398 15.1489C18.3853 13.553 18.1765 11.7674 17.1701 10.2821C16.7524 9.65009 15.7461 8.74943 15.0055 8.3228L14.4549 8.02258L14.6448 7.45374C14.8726 6.71108 15.1195 5.36799 15.1195 4.79915C15.1195 4.35672 15.1385 4.34092 15.3473 4.38832C16.7714 4.73595 18.1955 4.75175 19.2208 4.46733L19.7525 4.32512L19.8284 4.72015C19.8474 4.95716 19.9233 5.4786 19.9803 5.90523ZM9.25228 5.05197C9.40418 6.04744 8.92949 7.09031 7.9991 7.80136C7.48643 8.19639 7.44846 8.21219 7.31554 8.06998C7.2206 7.95937 7.18263 7.72235 7.2206 7.20092C7.25858 6.61628 7.31554 6.39506 7.54339 6.01584C7.82821 5.526 8.81557 4.62534 9.06241 4.62534C9.15734 4.60954 9.21431 4.76755 9.25228 5.05197ZM13.6384 8.54401C16.2967 9.58688 17.7777 12.2573 16.9613 14.6116L16.7904 15.1015L16.0119 14.4536C15.5752 14.106 15.1385 13.8216 15.0435 13.8216C14.9296 13.8216 14.3979 14.2008 13.8093 14.7064C13.2207 15.1963 12.4232 15.8283 12.0245 16.1443L11.284 16.7132L9.61305 15.2753C8.49278 14.3114 7.86618 13.8374 7.73327 13.8374C7.60036 13.8374 6.95478 14.3272 5.81552 15.2595C4.86614 16.0495 4.04967 16.6816 3.9927 16.6816C3.93574 16.6816 3.48004 16.334 2.98636 15.9073L2.07495 15.1331L2.01799 14.6274C1.79014 12.8577 2.92939 11.1512 4.69525 10.5666C4.98006 10.4717 5.54969 10.3769 5.98641 10.3453C6.74591 10.2979 6.7649 10.2979 6.57502 10.4401C6.3092 10.5982 6.29021 10.772 6.51806 10.9774C6.70794 11.1512 6.9168 11.167 7.63833 11.009C8.28391 10.8668 9.06241 10.4875 9.27127 10.2031C9.48013 9.95031 9.30925 9.61849 8.98645 9.61849C8.79658 9.61849 8.85354 9.53948 9.34722 9.17606C10.6953 8.18059 12.1574 7.94357 13.6384 8.54401ZM7.39149 10.2505C7.39149 10.2979 7.23959 10.3295 7.08769 10.3295C6.78389 10.3137 6.78389 10.3137 7.01174 10.2505C7.35352 10.1715 7.39149 10.1715 7.39149 10.2505ZM9.44216 16.2075C10.4865 17.0766 11.227 17.6296 11.3409 17.6296C11.4549 17.6296 12.2144 17.0608 13.2777 16.1917L15.0435 14.738L16.7524 16.1917C17.7018 16.9818 18.5372 17.6296 18.6322 17.6296C18.7271 17.6296 19.6006 16.9976 20.5499 16.2075L22.3158 14.8012L23.9487 16.2075C24.8601 16.9818 25.6956 17.6296 25.8095 17.6612C25.9994 17.7087 26.3032 17.4716 27.8222 16.2233L29.607 14.738L31.3349 16.2233C32.2843 17.045 33.1198 17.7087 33.1957 17.7087C33.2717 17.7087 34.0122 17.1398 34.8476 16.4604C36.1008 15.4175 36.3477 15.2437 36.3477 15.4017C36.3477 15.5123 35.854 20.379 35.2464 26.2254C34.6388 32.0719 34.1451 36.9386 34.1451 37.0492V37.2388H18.6512H3.10028V37.0492C3.10028 36.9386 2.6066 32.0877 1.999 26.2412C1.39139 20.3948 0.897716 15.5281 0.897716 15.4175C0.897716 15.2437 1.10658 15.3859 2.35977 16.4288C3.19522 17.124 3.89776 17.6296 3.9927 17.6296C4.10663 17.6296 4.88512 17.0292 5.89147 16.2075C6.84085 15.4175 7.63833 14.7854 7.65732 14.7854C7.67631 14.7854 8.49278 15.4175 9.44216 16.2075Z" fill="#707070"/>
<path d="M27.8601 7.83295C27.6322 8.00664 27.6702 8.2435 27.936 8.38561C28.3158 8.59088 29.6069 8.82773 30.3285 8.82773C31.4867 8.82773 32.8918 8.48035 32.9867 8.18034C33.0247 8.08559 32.9488 7.94348 32.8538 7.84874L32.6829 7.67505L31.9234 7.86453C30.9171 8.13296 29.6259 8.13296 28.7715 7.88032C28.0879 7.67505 28.0499 7.67505 27.8601 7.83295Z" fill="#707070"/>
<path d="M25.1641 11.1827C24.9552 11.2616 24.8413 11.5142 24.9552 11.6722C25.2021 12.0511 27.0439 12.4143 28.6768 12.4143C30.8034 12.4301 32.7022 11.8932 32.3224 11.3721C32.1515 11.1669 31.8857 11.1669 31.0313 11.4037C29.5882 11.7985 27.7654 11.7827 26.2844 11.4037C25.8287 11.2774 25.4299 11.1827 25.3729 11.1669C25.335 11.1511 25.2211 11.1511 25.1641 11.1827Z" fill="#707070"/>
</svg>
