<svg width="30" height="31" viewBox="0 0 30 31" fill="none" xmlns="http://www.w3.org/2000/svg">
<path d="M15 30.4377C6.7155 30.4377 0 23.7222 0 15.4377C0 8.72074 4.4145 3.03574 10.5 1.12474V4.31074C7.92139 5.35781 5.7867 7.2683 4.46109 9.71542C3.13548 12.1625 2.70132 14.9942 3.23288 17.7261C3.76444 20.4579 5.22869 22.9202 7.37515 24.6917C9.52161 26.4633 12.2169 27.4339 15 27.4377C17.3907 27.4377 19.7269 26.7238 21.7093 25.3876C23.6917 24.0514 25.2299 22.1537 26.127 19.9377H29.313C27.402 26.0232 21.717 30.4377 15 30.4377ZM29.925 16.9377H13.5V0.512744C13.9935 0.463244 14.4945 0.437744 15 0.437744C23.2845 0.437744 30 7.15325 30 15.4377C30 15.9432 29.9745 16.4442 29.925 16.9377ZM16.5 3.53074V13.9377H26.907C26.5731 11.2942 25.3693 8.83675 23.4851 6.9526C21.601 5.06845 19.1436 3.86462 16.5 3.53074Z" fill="#707070"/>
</svg>
