<svg width="26" height="27" viewBox="0 0 26 27" fill="none" xmlns="http://www.w3.org/2000/svg">
<path d="M13 26.7876C6.09625 26.7876 0.5 20.8967 0.5 13.6294C0.5 6.36212 6.09625 0.471191 13 0.471191C19.9037 0.471191 25.5 6.36212 25.5 13.6294C25.5 20.8967 19.9037 26.7876 13 26.7876ZM13 24.156C15.6522 24.156 18.1957 23.0469 20.0711 21.0728C21.9464 19.0987 23 16.4212 23 13.6294C23 10.8376 21.9464 8.1601 20.0711 6.18599C18.1957 4.21188 15.6522 3.10283 13 3.10283C10.3478 3.10283 7.8043 4.21188 5.92893 6.18599C4.05357 8.1601 3 10.8376 3 13.6294C3 16.4212 4.05357 19.0987 5.92893 21.0728C7.8043 23.0469 10.3478 24.156 13 24.156ZM11.75 17.5769H14.25V20.2085H11.75V17.5769ZM14.25 15.4123V16.261H11.75V14.2873C11.75 13.9383 11.8817 13.6036 12.1161 13.3569C12.3505 13.1101 12.6685 12.9715 13 12.9715C13.3551 12.9715 13.7029 12.8653 14.0029 12.6653C14.3029 12.4654 14.5428 12.1798 14.6947 11.842C14.8466 11.5041 14.9042 11.1278 14.8609 10.7568C14.8175 10.3858 14.6749 10.0353 14.4498 9.74629C14.2246 9.45724 13.9261 9.24144 13.589 9.12399C13.2519 9.00653 12.89 8.99227 12.5455 9.08285C12.201 9.17343 11.888 9.36512 11.643 9.63564C11.3979 9.90615 11.2308 10.2444 11.1613 10.6109L8.70875 10.0938C8.86079 9.29388 9.21189 8.55082 9.72615 7.94056C10.2404 7.3303 10.8994 6.87474 11.6357 6.62044C12.3721 6.36614 13.1594 6.32223 13.9171 6.49319C14.6748 6.66416 15.3759 7.04386 15.9485 7.5935C16.5212 8.14313 16.9449 8.84297 17.1764 9.62149C17.4079 10.4 17.4388 11.2293 17.2661 12.0245C17.0933 12.8197 16.7231 13.5524 16.1932 14.1476C15.6632 14.7429 14.9927 15.1793 14.25 15.4123Z" fill="#707070"/>
</svg>
