<svg width="27" height="27" viewBox="0 0 27 27" fill="none" xmlns="http://www.w3.org/2000/svg">
<path d="M2.11015 19.8739C1.54651 18.9093 1.10837 17.8781 0.806152 16.8047C1.4639 16.4737 2.01628 15.969 2.40219 15.3465C2.7881 14.7241 2.99251 14.0081 2.99278 13.2778C2.99306 12.5475 2.7892 11.8314 2.40376 11.2087C2.01831 10.5859 1.46631 10.0808 0.808819 9.74929C1.41153 7.59252 2.55912 5.6231 4.14349 4.02655C4.76228 4.42468 5.48031 4.64562 6.21812 4.66491C6.95594 4.6842 7.68476 4.50109 8.32393 4.13585C8.96309 3.77061 9.48769 3.23748 9.83965 2.59546C10.1916 1.95344 10.3572 1.22756 10.3182 0.498168C12.5076 -0.0618053 14.8051 -0.060897 16.9942 0.500807C16.9554 1.23019 17.1214 1.95595 17.4736 2.59779C17.8258 3.23963 18.3506 3.77251 18.9899 4.13747C19.6292 4.50243 20.3581 4.68524 21.0958 4.66566C21.8336 4.64608 22.5515 4.42489 23.1702 4.02655C23.9422 4.80506 24.6275 5.69046 25.2035 6.67878C25.7808 7.66709 26.2128 8.69763 26.5075 9.74797C25.8497 10.079 25.2974 10.5837 24.9114 11.2062C24.5255 11.8286 24.3211 12.5446 24.3209 13.2749C24.3206 14.0052 24.5244 14.7213 24.9099 15.344C25.2953 15.9668 25.8473 16.4719 26.5048 16.8034C25.9021 18.9602 24.7545 20.9296 23.1702 22.5262C22.5514 22.128 21.8333 21.9071 21.0955 21.8878C20.3577 21.8685 19.6289 22.0516 18.9897 22.4169C18.3505 22.7821 17.8259 23.3152 17.474 23.9572C17.122 24.5993 16.9564 25.3251 16.9955 26.0545C14.806 26.6145 12.5085 26.6136 10.3195 26.0519C10.3582 25.3225 10.1923 24.5967 9.84005 23.9549C9.48781 23.3131 8.96301 22.7802 8.32371 22.4152C7.68442 22.0503 6.95556 21.8675 6.21779 21.887C5.48002 21.9066 4.7621 22.1278 4.14349 22.5262C3.35547 21.7304 2.67228 20.8393 2.11015 19.8739ZM9.65682 20.1325C11.0777 20.9436 12.1459 22.2451 12.6568 23.7876C13.3222 23.8496 13.9902 23.8509 14.6555 23.7889C15.1667 22.2462 16.2355 20.9446 17.6568 20.1339C19.0771 19.3206 20.7508 19.0551 22.3568 19.3883C22.7435 18.85 23.0768 18.276 23.3542 17.6756C22.2601 16.4662 21.6556 14.8996 21.6568 13.2764C21.6568 11.6138 22.2835 10.0607 23.3542 8.87709C23.0749 8.27691 22.7401 7.70356 22.3542 7.16436C20.7492 7.49728 19.0765 7.23228 17.6568 6.42015C16.236 5.60914 15.1677 4.30758 14.6568 2.76509C13.9915 2.70308 13.3235 2.70176 12.6582 2.76377C12.1469 4.30648 11.0782 5.60807 9.65682 6.41883C8.23653 7.23207 6.56279 7.49756 4.95682 7.16436C4.57091 7.7031 4.23699 8.27653 3.95949 8.87709C5.05358 10.0865 5.658 11.6531 5.65682 13.2764C5.65682 14.9389 5.03015 16.492 3.95949 17.6756C4.23878 18.2758 4.57354 18.8491 4.95949 19.3883C6.56444 19.0554 8.2371 19.3204 9.65682 20.1325ZM13.6568 17.2349C12.596 17.2349 11.5785 16.8178 10.8284 16.0755C10.0782 15.3331 9.65682 14.3262 9.65682 13.2764C9.65682 12.2265 10.0782 11.2196 10.8284 10.4772C11.5785 9.73487 12.596 9.31781 13.6568 9.31781C14.7177 9.31781 15.7351 9.73487 16.4852 10.4772C17.2354 11.2196 17.6568 12.2265 17.6568 13.2764C17.6568 14.3262 17.2354 15.3331 16.4852 16.0755C15.7351 16.8178 14.7177 17.2349 13.6568 17.2349ZM13.6568 14.5959C14.0104 14.5959 14.3496 14.4568 14.5996 14.2094C14.8497 13.9619 14.9902 13.6263 14.9902 13.2764C14.9902 12.9264 14.8497 12.5908 14.5996 12.3433C14.3496 12.0959 14.0104 11.9568 13.6568 11.9568C13.3032 11.9568 12.9641 12.0959 12.714 12.3433C12.464 12.5908 12.3235 12.9264 12.3235 13.2764C12.3235 13.6263 12.464 13.9619 12.714 14.2094C12.9641 14.4568 13.3032 14.5959 13.6568 14.5959Z" fill="#707070"/>
</svg>
