<svg width="26" height="30" viewBox="0 0 26 30" fill="none" xmlns="http://www.w3.org/2000/svg">
<path d="M14.2444 10.3898C14.2444 9.17102 14.8193 8.10766 15.6732 7.54013C15.8647 7.41285 15.8386 7.10254 15.6086 7.10254C14.0352 7.10254 12.7598 8.57429 12.7598 10.3897C12.7598 12.2052 14.0353 13.6769 15.6086 13.6769C15.8385 13.6769 15.8647 13.3666 15.6732 13.2394C14.8193 12.6719 14.2444 11.6085 14.2444 10.3898Z" fill="white"/>
<path d="M16.8011 25.5523C12.3989 24.6609 8.26446 22.4905 4.78988 19.2466C3.77279 18.297 3.68316 16.5438 4.59635 15.4627C4.60676 15.4503 4.61722 15.438 4.62774 15.4256C4.63703 15.4146 4.62761 15.3984 4.61362 15.4019C4.19679 15.5037 3.80165 15.7442 3.4842 16.12C3.47379 16.1324 3.46333 16.1448 3.45282 16.1571C2.53957 17.2382 2.62915 18.9914 3.64634 19.941C7.12093 23.1849 11.2554 25.3554 15.6576 26.2468C16.1242 26.3413 16.5795 26.2605 16.9758 26.0478C17.2006 25.9271 17.0513 25.6029 16.8011 25.5523Z" fill="white"/>
<path d="M22.1923 4.39335C19.7369 1.56023 16.4724 0 13 0C9.52752 0 6.26302 1.56023 3.80766 4.39335C1.35225 7.22647 0 10.9933 0 15C0 19.0066 1.35225 22.7735 3.80766 25.6066C6.26302 28.4397 9.52752 30 13 30C16.4724 30 19.737 28.4397 22.1924 25.6066C24.6478 22.7735 26 19.0066 26 15C26 10.9933 24.6477 7.22647 22.1923 4.39335ZM13 28.9582C6.32959 28.9582 0.902835 22.6966 0.902835 15C0.902835 7.30334 6.32959 1.04168 13 1.04168C19.6704 1.04168 25.097 7.30334 25.097 14.9999C25.097 22.6966 19.6703 28.9582 13 28.9582Z" fill="black"/>
<path d="M4.94826 14.0131C4.97264 14.0176 4.99696 14.0198 5.02083 14.0198C5.23843 14.0198 5.43002 13.8379 5.46593 13.582C5.82515 11.0198 7.14322 8.78132 9.08229 7.4404C9.29613 7.29257 9.3656 6.97265 9.23748 6.72585C9.10921 6.47912 8.83194 6.39896 8.6182 6.54679C6.45026 8.04579 4.9765 10.5494 4.57472 13.4156C4.53486 13.6998 4.70218 13.9672 4.94826 14.0131Z" fill="black"/>
<path d="M21.543 10.739C21.0437 10.2022 20.698 9.53269 20.5434 8.80308C20.117 6.79074 18.8871 5.06914 17.2537 4.19768C17.0276 4.07698 16.7592 4.19071 16.6546 4.45186C16.55 4.71301 16.6485 5.0225 16.8749 5.14326C18.261 5.88283 19.3046 7.34357 19.6664 9.05058C19.863 9.97806 20.2991 10.8254 20.9275 11.5012C21.7933 12.4321 22.2633 13.7498 22.2172 15.1163C22.1342 17.5726 20.4002 19.5476 18.2696 19.6126C16.9072 19.6538 15.6249 18.9119 14.8392 17.6272C14.35 16.8275 13.6883 16.224 12.9255 15.882C10.9375 14.9905 9.64214 12.7366 9.70231 10.2734C9.73872 8.77952 10.271 7.37076 11.2009 6.30652C12.1307 5.2424 13.3561 4.63965 14.6511 4.6093C14.8834 4.60379 15.1173 4.61656 15.3458 4.64727C15.5936 4.68031 15.8175 4.4757 15.8462 4.18994C15.875 3.90424 15.6975 3.64567 15.4499 3.6125C15.1809 3.57647 14.9063 3.56153 14.6328 3.5678C13.1048 3.60354 11.6602 4.31352 10.565 5.56689C9.46969 6.82045 8.84274 8.48146 8.79973 10.2441C8.72884 13.1464 10.2554 15.8024 12.5983 16.8531C13.1951 17.1207 13.7149 17.5962 14.1014 18.228C15.0361 19.7561 16.5458 20.6561 18.1606 20.6561C18.2048 20.6561 18.249 20.6554 18.2933 20.6541C20.8979 20.5746 23.0176 18.16 23.1191 15.157C23.1757 13.4871 22.6011 11.8768 21.543 10.739Z" fill="black"/>
<path d="M17.7181 12.6576C17.9247 12.8187 18.2052 12.756 18.3448 12.5175C18.7137 11.8874 18.9087 11.1511 18.9087 10.3881C18.9087 8.28832 17.4281 6.58008 15.6084 6.58008C13.7886 6.58008 12.3081 8.28838 12.3081 10.3881C12.3081 12.4878 13.7886 14.1961 15.6084 14.1961C16.1048 14.1961 16.5822 14.0719 17.0274 13.8269C17.2524 13.7031 17.3479 13.3923 17.2406 13.1326C17.1333 12.8729 16.8637 12.7628 16.6389 12.8866C16.3159 13.0643 15.9692 13.1543 15.6083 13.1543C14.2863 13.1543 13.2108 11.9134 13.2108 10.388C13.2108 8.86265 14.2863 7.6217 15.6083 7.6217C16.9303 7.6217 18.0058 8.86265 18.0058 10.388C18.0058 10.9424 17.8643 11.4771 17.5966 11.9344C17.4571 12.1728 17.5114 12.4966 17.7181 12.6576Z" fill="black"/>
<path d="M16.5075 20.6288C12.9427 19.9063 9.57101 18.1361 6.75688 15.5099C5.67641 14.5015 4.13029 14.6069 3.16108 15.7543L3.12919 15.792C2.60549 16.412 2.33051 17.2633 2.37474 18.1276C2.41897 18.9919 2.77885 19.7999 3.36207 20.3444C3.95712 20.8999 4.58031 21.4322 5.21436 21.9264C5.42088 22.0875 5.7015 22.0248 5.8411 21.7864C5.98059 21.5481 5.92631 21.2243 5.71968 21.0632C5.10711 20.5857 4.50485 20.0713 3.92985 19.5345C3.53788 19.1686 3.3057 18.6471 3.276 18.0662C3.24624 17.4852 3.42372 16.9359 3.77563 16.5193L3.80712 16.482C4.44924 15.7217 5.47334 15.652 6.1891 16.32C9.122 19.0572 12.636 20.902 16.3513 21.655C17.2579 21.8387 17.8852 22.7754 17.8105 23.8329L17.8068 23.8851C17.7657 24.4651 17.5234 24.9805 17.1242 25.3364C16.725 25.6921 16.2317 25.8325 15.7352 25.7321C12.6603 25.1095 9.73793 23.865 7.04933 22.0332C6.83483 21.887 6.55797 21.9692 6.43112 22.2169C6.30437 22.4646 6.37562 22.784 6.59032 22.9302C9.37276 24.826 12.3971 26.1139 15.5793 26.7583C15.7322 26.7893 15.8861 26.8044 16.0394 26.8044C16.6272 26.8044 17.2054 26.5806 17.6763 26.1608C18.2701 25.6314 18.6457 24.8329 18.7068 23.9685L18.7104 23.9183C18.8232 22.3204 17.8762 20.9062 16.5075 20.6288Z" fill="black"/>
<path d="M16.1296 15.7702C16.3789 15.7702 16.581 15.537 16.581 15.2494C16.581 14.9617 16.3789 14.7285 16.1296 14.7285C15.8803 14.7285 15.6782 14.9617 15.6782 15.2494C15.6782 15.537 15.8803 15.7702 16.1296 15.7702Z" fill="black"/>
<path d="M17.052 17.8542C17.3013 17.8542 17.5034 17.621 17.5034 17.3333C17.5034 17.0457 17.3013 16.8125 17.052 16.8125C16.8027 16.8125 16.6006 17.0457 16.6006 17.3333C16.6006 17.621 16.8027 17.8542 17.052 17.8542Z" fill="black"/>
<path d="M20.0613 14.9841C20.3106 14.9841 20.5126 14.7509 20.5126 14.4632C20.5126 14.1756 20.3106 13.9424 20.0613 13.9424C19.812 13.9424 19.6099 14.1756 19.6099 14.4632C19.6099 14.7509 19.812 14.9841 20.0613 14.9841Z" fill="black"/>
</svg>
