<svg width="31" height="30" viewBox="0 0 31 30" fill="none" xmlns="http://www.w3.org/2000/svg">
<g clip-path="url(#clip0_4985_337)">
<path d="M19.3854 18.3104C19.5142 18.1584 19.5409 17.9482 19.454 17.7705C19.367 17.5928 19.1822 17.4795 18.9791 17.4795H0.525439C0.322336 17.4795 0.137378 17.5928 0.0505038 17.7705C-0.0363704 17.9482 -0.00967764 18.1584 0.119092 18.3104L2.47534 21.0915L2.96688 22.694C3.03309 22.9098 3.23802 23.0578 3.47061 23.0578H16.0339C16.2665 23.0578 16.4714 22.9098 16.5376 22.694L17.0292 21.0915L19.3854 18.3104ZM17.8687 18.4966L16.3069 20.34H3.19759L1.63582 18.4966H17.8687ZM15.6418 22.0408H3.86274L3.65298 21.357H15.8515L15.6418 22.0408Z" fill="black"/>
<path d="M23.0273 13.4713C24.4189 14.4892 25.4601 15.9338 25.9589 17.5389C26.0274 17.759 26.236 17.9011 26.4619 17.9011C26.512 17.9011 26.563 17.8941 26.6135 17.8794C26.8914 17.7985 27.0489 17.5149 26.9653 17.246C26.4026 15.4356 25.2291 13.807 23.6609 12.6599C22.0392 11.4737 20.1074 10.8467 18.0743 10.8467C17.7841 10.8467 17.5488 11.0744 17.5488 11.3552C17.5488 11.636 17.7841 11.8637 18.0743 11.8637C19.8769 11.8637 21.5896 12.4196 23.0273 13.4713Z" fill="black"/>
<path d="M30.4746 19.4506H29.1005C28.9112 14.2273 24.8269 9.94673 19.5783 9.25144C19.6829 9.04065 19.7415 8.80464 19.7415 8.55561C19.7415 7.66608 18.9937 6.94238 18.0745 6.94238C17.1553 6.94238 16.4075 7.66608 16.4075 8.55561C16.4075 8.80417 16.466 9.03977 16.5702 9.25029C14.8459 9.47722 13.2077 10.0942 11.7659 11.0681C9.95247 12.293 8.57405 13.9915 7.77964 15.9799C7.67497 16.2419 7.80962 16.5363 8.08027 16.6376C8.35077 16.7388 8.65525 16.6086 8.75985 16.3466C9.47852 14.5476 10.726 13.0107 12.3674 11.902C14.0459 10.7682 16.0194 10.1688 18.0744 10.1688C23.448 10.1688 27.8434 14.2985 28.0496 19.4506H19.5178C19.2276 19.4506 18.9924 19.6783 18.9924 19.9591C18.9924 20.24 19.2276 20.4676 19.5178 20.4676H30.4746C30.7648 20.4676 31.0001 20.24 31.0001 19.9591C31.0001 19.6783 30.7648 19.4506 30.4746 19.4506ZM17.4584 8.55561C17.4584 8.22685 17.7348 7.95938 18.0745 7.95938C18.4142 7.95938 18.6906 8.22685 18.6906 8.55561C18.6906 8.88437 18.4142 9.15184 18.0745 9.15184C17.7348 9.15184 17.4584 8.88437 17.4584 8.55561Z" fill="black"/>
</g>
<defs>
<clipPath id="clip0_4985_337">
<rect width="31" height="30" rx="15" fill="white"/>
</clipPath>
</defs>
</svg>
