<svg width="35" height="34" viewBox="0 0 35 34" fill="none" xmlns="http://www.w3.org/2000/svg">
<path d="M30.5366 22.6309L29.7992 22.415C29.1601 25.1943 27.4823 27.5277 25.1958 28.8172L25.5364 29.5859C28.0198 28.1855 29.8423 25.6504 30.5366 22.6309Z" fill="black"/>
<path d="M32.4355 32.6914H1.02979V33.5508H32.4355V32.6914Z" fill="black"/>
<path d="M2.67327 18.1621C2.71973 17.891 2.76475 17.6368 2.80847 17.3964L4.9128 18.2699L5.17582 17.4633L2.96905 16.5473C3.26215 15.0626 3.4896 14.2693 3.67927 13.6883C3.88852 13.0462 4.307 12.5346 4.85773 12.2475C5.40845 11.9605 6.02514 11.9327 6.59452 12.1692C7.16383 12.4052 7.61743 12.8774 7.87185 13.4987C8.12619 14.1199 8.15102 14.8158 7.94177 15.4578C7.91481 15.5404 7.87512 15.65 7.82424 15.7828L5.97425 15.0148L5.71123 15.8213L7.5063 16.5665C7.22599 17.2327 6.84109 18.1014 6.40348 19.0375H1.3539V19.9206C1.3539 20.1602 1.36022 20.4028 1.37271 20.6413C1.62301 25.4415 4.34943 29.458 8.09991 31.149H1.02979V32.0084H12.0682H21.3972H32.4355V31.149H25.3643C29.3139 29.3665 32.1113 25.0055 32.1113 19.9206V19.8515C32.5978 19.7636 33.059 19.5492 33.465 19.2191C34.1568 18.6565 34.6131 17.8239 34.7499 16.8743C34.887 15.9245 34.6878 14.9717 34.1892 14.1914C33.8356 13.6377 33.3535 13.2205 32.8113 12.9689C33.0029 12.6597 33.1248 12.2964 33.1553 11.9171C33.1726 11.7074 33.1624 11.4949 33.1251 11.2846C32.9127 10.1065 31.8903 9.34234 30.8457 9.58167C30.6651 9.6231 30.4928 9.69262 30.3331 9.78698C30.3302 9.76618 30.3282 9.74538 30.3251 9.7245C30.1506 8.5726 29.5891 7.56618 28.7437 6.8908C26.9987 5.49655 24.5737 5.96396 23.3378 7.93271C23.1392 8.24913 22.9824 8.59021 22.8668 8.94556C21.144 8.47308 19.3765 9.6176 18.8826 11.5572C18.6678 12.4003 18.7217 13.3059 19.0345 14.1074L19.7316 13.7612C19.4904 13.1434 19.4489 12.4449 19.6147 11.7947C19.8039 11.0512 20.2385 10.4354 20.8383 10.0607C21.4032 9.708 22.0509 9.609 22.6752 9.77692C22.5414 10.7354 22.6883 11.7381 23.1238 12.6106L23.7876 12.189C23.1988 11.0094 23.2663 9.53372 23.9594 8.42942C24.4404 7.66312 25.1572 7.15394 25.9777 6.99581C26.798 6.83769 27.6241 7.04944 28.3034 7.59222C28.9826 8.13492 29.434 8.94359 29.5741 9.86922C29.7143 10.7949 29.5265 11.7268 29.0455 12.4931L29.6671 12.9897C30.074 12.3416 30.3118 11.5982 30.3678 10.8269C30.5342 10.6217 30.7527 10.48 30.9973 10.4239C31.6305 10.2791 32.2499 10.7419 32.3784 11.4548C32.4011 11.5823 32.4073 11.7112 32.3968 11.8386C32.3693 12.1813 32.2192 12.5025 31.9886 12.7249C31.6696 12.6795 31.3427 12.6862 31.018 12.7535L31.1556 13.5987C32.0766 13.4078 33.0247 13.8377 33.5713 14.6938C34.3548 15.9201 34.1073 17.6374 33.0197 18.522C32.6135 18.8523 32.1348 19.0302 31.635 19.0374H27.4495C28.5921 17.1554 29.5559 17.056 29.5665 17.0552L29.5587 17.0556L29.5372 16.1965C29.3819 16.2015 28.0085 16.3255 26.5436 19.0374H26.3537C26.3671 18.8983 26.3759 18.7582 26.3779 18.6171C26.3946 17.3929 25.9848 16.2384 25.2238 15.3665C24.4626 14.4943 23.4461 14.014 22.3614 14.014C21.6833 14.014 21.0122 14.2085 20.4202 14.5767C20.246 14.6856 20.062 14.7885 19.8736 14.8823C18.9059 15.3635 17.8837 15.5573 16.9173 15.4424C16.8374 15.4329 16.7558 15.4284 16.6736 15.427C15.785 14.5891 14.779 13.8694 13.998 13.3609C13.9823 12.4003 14.0575 11.4321 14.2232 10.4816L14.3126 9.96899H13.8495C13.6358 9.96899 13.0899 10.0243 12.6365 10.5358C12.5932 10.5847 12.5529 10.636 12.5149 10.689C12.4769 10.636 12.4366 10.5847 12.3933 10.5358C11.9398 10.0242 11.394 9.96899 11.1803 9.96899H10.7172L10.8065 10.4815C10.9722 11.4321 11.0474 12.4003 11.0317 13.3604C10.3835 13.7822 9.58046 14.3492 8.81866 15.0086C8.89164 14.376 8.8064 13.7316 8.56341 13.1382C8.39111 12.7174 8.15026 12.3483 7.8557 12.0451C8.02434 11.9218 8.18621 11.7771 8.32842 11.6418C8.87587 11.1204 9.51084 10.3529 10.1164 9.4807C10.7219 8.60878 11.2302 7.72955 11.5477 7.00501C11.8104 6.40542 12.1093 5.56358 11.6727 5.17729C11.3172 4.86302 10.7289 5.12538 9.91851 5.95657C9.92971 5.84021 9.93847 5.72652 9.94395 5.61669C10.0079 4.33296 9.64612 3.90774 9.33138 3.77711C8.77479 3.54611 8.15292 4.13392 7.60052 5.06574C7.46456 3.79129 7.16452 3.13593 6.70398 3.11479C6.15372 3.08978 5.89389 3.94933 5.74955 4.59807C5.57504 5.38199 5.45705 6.42313 5.41721 7.52983C5.3773 8.63688 5.41988 9.68574 5.53726 10.4831C5.56856 10.6959 5.61 10.9314 5.67033 11.154C5.28376 11.1742 4.90038 11.2786 4.53841 11.4672C3.8029 11.8505 3.24395 12.534 2.96455 13.3913C2.70496 14.1865 2.37848 15.3558 1.92541 17.9987L2.67327 18.1621ZM8.3333 16.6005C8.61772 16.2943 8.92949 15.9987 9.25178 15.7188C8.75506 16.6433 8.41221 17.7199 8.41221 18.8615C8.41221 18.9203 8.41412 18.9789 8.41518 19.0375H7.26362C7.7093 18.0714 8.07972 17.2199 8.3333 16.6005ZM13.9695 17.6821H12.5752V18.5415H13.8603C13.8599 18.7088 13.8707 18.8744 13.8936 19.0375H11.3272C11.3266 18.9789 11.3258 18.9203 11.3258 18.8615C11.3258 16.8752 11.8102 15.2176 12.2021 14.2943V14.4181H12.2029L12.2028 14.2928C12.3236 14.0085 12.4357 13.793 12.5219 13.6604C12.7552 14.0056 13.1823 14.9428 13.4634 16.3839L14.2074 16.1993C14.0597 15.4418 13.8493 14.7099 13.6067 14.101C14.2116 14.4947 14.9574 15.019 15.6643 15.6207C15.0962 15.8598 14.6039 16.3088 14.2739 16.91C14.1409 17.1513 14.0393 17.4115 13.9695 17.6821ZM9.1769 19.0375C9.17568 18.9789 9.17393 18.9204 9.17393 18.8615C9.17393 17.1606 10.0741 15.7685 10.6108 15.0901C10.8723 14.7595 11.1312 14.4872 11.3713 14.2679C11.323 14.3973 11.2776 14.5266 11.2355 14.6526C10.9848 15.404 10.5641 16.95 10.5641 18.8615C10.5641 18.9203 10.565 18.9789 10.5655 19.0375H9.1769ZM31.3496 19.9206C31.3496 26.1121 26.885 31.1491 21.3972 31.1491H12.0682C6.80582 31.1491 2.44186 26.5114 2.13313 20.5909C2.12156 20.3691 2.11569 20.1436 2.11569 19.9206V19.8969H31.3497V19.9206H31.3496ZM20.4998 18.5456C20.4998 17.3805 21.3402 16.4328 22.3733 16.4328C23.406 16.4328 24.2461 17.3806 24.2461 18.5456C24.2461 18.7129 24.2269 18.8771 24.193 19.0375H20.5531C20.5189 18.8775 20.4998 18.7133 20.4998 18.5456ZM20.1809 15.6688C20.3904 15.5645 20.5951 15.45 20.7886 15.329C21.2677 15.0311 21.8115 14.8735 22.3613 14.8735C23.2403 14.8735 24.0641 15.2628 24.681 15.9696C25.2977 16.6762 25.6298 17.6118 25.6162 18.6037C25.6141 18.7497 25.6036 18.8946 25.5865 19.0375H24.9711C24.9949 18.8758 25.0076 18.7117 25.0076 18.5456C25.0076 16.9067 23.8257 15.5734 22.3731 15.5734C20.9201 15.5734 19.7379 16.9067 19.7379 18.5456C19.7379 18.7118 19.7506 18.876 19.7745 19.0375H14.6688C14.6329 18.8557 14.6169 18.6687 14.622 18.4788C14.6323 18.0851 14.7356 17.6996 14.921 17.3631C15.2713 16.7247 15.8712 16.3227 16.5256 16.2876C16.6314 16.282 16.7362 16.2852 16.8372 16.2973C17.9358 16.4276 19.0918 16.2105 20.1809 15.6688ZM13.175 11.1438C13.2393 11.0712 13.3075 11.0153 13.3751 10.9721C13.291 11.6067 13.2446 12.2465 13.2356 12.8849C13.1001 12.8039 12.9855 12.7373 12.8957 12.686V11.9046C12.8957 11.6172 12.9949 11.347 13.175 11.1438ZM11.6545 10.9721C11.7221 11.0153 11.7903 11.0712 11.8546 11.1438C12.0347 11.347 12.1339 11.6172 12.1339 11.9046V12.6859C12.0441 12.7371 11.9291 12.804 11.794 12.8847C11.785 12.2464 11.7386 11.6067 11.6545 10.9721ZM11.0893 6.01896C10.947 6.52445 10.4657 7.58431 9.5167 8.95098C9.28362 9.28665 9.0599 9.58657 8.84883 9.85281C9.03355 9.43575 9.20211 8.99257 9.34715 8.54785C9.463 8.19284 9.56241 7.83972 9.64681 7.49451C10.314 6.65946 10.8093 6.21095 11.0893 6.01896ZM9.06759 4.58613C9.229 4.75972 9.33442 6.09837 8.63242 8.25102C7.93027 10.4038 7.08088 11.3461 6.85831 11.3602C6.6969 11.1866 6.5914 9.84799 7.29347 7.69526C7.99563 5.54244 8.84502 4.60022 9.06759 4.58613ZM6.17832 7.56498C6.2407 5.83042 6.48316 4.67138 6.66513 4.18239C6.77101 4.54333 6.89479 5.27629 6.91833 6.45716L6.92252 6.45707C6.79767 6.76413 6.6822 7.08098 6.5786 7.39852C6.41605 7.89696 6.27696 8.41576 6.1736 8.92047C6.16072 8.51639 6.16027 8.0641 6.17832 7.56498Z" fill="black"/>
<path d="M4.02011 15.1184L5.02637 15.5361L5.28939 14.7296L4.28313 14.3119L4.02011 15.1184Z" fill="black"/>
<path d="M32.3064 17.5454C32.0319 17.7684 31.6969 17.8574 31.3629 17.7963L31.2407 18.6445C31.3509 18.6646 31.4612 18.6747 31.5705 18.6747C31.9924 18.6747 32.4026 18.5263 32.7516 18.2429C33.1912 17.8857 33.4812 17.3567 33.5682 16.7534C33.6551 16.1501 33.5286 15.5448 33.2121 15.0488L32.594 15.551C32.7917 15.8608 32.8706 16.2388 32.8163 16.6155C32.762 16.992 32.5809 17.3223 32.3064 17.5454Z" fill="black"/>
<path d="M25.7438 9.28124L25.9543 8.4553C25.0813 8.1723 24.1664 8.74319 23.9154 9.72829C23.6644 10.7135 24.1706 11.7453 25.0438 12.0286L25.2542 11.2026C24.7846 11.0504 24.5126 10.4955 24.6475 9.96573C24.7824 9.43601 25.2743 9.12896 25.7438 9.28124Z" fill="black"/>
<path d="M12.4588 3.57263H13.2205V2.50804H14.1642V1.64866H13.2205V0.583984H12.4588V1.64866H11.5151V2.50804H12.4588V3.57263Z" fill="black"/>
<path d="M21.3748 7.41638H22.1366V6.35179H23.0803V5.49241H22.1366V4.42773H21.3748V5.49241H20.4312V6.35179H21.3748V7.41638Z" fill="black"/>
<path d="M1.1517 11.058H1.91342V9.99339H2.85711V9.13402H1.91342V8.06934H1.1517V9.13402H0.208008V9.99339H1.1517V11.058Z" fill="black"/>
</svg>
