<svg width="35" height="27" viewBox="0 0 35 27" fill="none" xmlns="http://www.w3.org/2000/svg">
<g clip-path="url(#clip0_4988_470)">
<path d="M11.4251 11.7956L11.7715 12.0183L10.9562 12.8043L11.8236 13.3397L12.6249 12.5668L13.2562 12.9726L13.9675 12.3143L13.3192 11.8975L14.0455 11.1972L13.178 10.6618L12.4655 11.3488L12.1195 11.1261L12.9347 10.34L12.0672 9.80469L11.2658 10.5776L10.6345 10.1718L9.92345 10.8301L10.5715 11.2468L9.84521 11.9474L10.7128 12.4825L11.4251 11.7956Z" fill="black"/>
<path d="M25.2767 13.3986V13.0713H24.1659V13.3986C24.1659 13.8263 23.8577 14.2108 23.3618 14.402L23.8588 15.1685C24.7333 14.8313 25.2767 14.1529 25.2767 13.3986Z" fill="black"/>
<path d="M16.2263 22.3736L15.4407 21.7676L15.2781 21.893C14.92 22.1693 14.7227 22.5368 14.7227 22.9275C14.7227 23.3183 14.92 23.6858 15.2781 23.962L15.4407 24.0875L16.2263 23.4814L16.0634 23.356C15.9149 23.2415 15.8335 23.0894 15.8335 22.9275C15.8335 22.7656 15.9152 22.6134 16.0634 22.4991L16.2263 22.3736Z" fill="black"/>
<mask id="mask0_4988_470" style="mask-type:luminance" maskUnits="userSpaceOnUse" x="0" y="0" width="35" height="27">
<path d="M0.279785 0.21582H34.7199V26.7839H0.279785V0.21582Z" fill="white"/>
</mask>
<g mask="url(#mask0_4988_470)">
<path d="M33.6095 0.21589H33.0541C32.4415 0.21589 31.9432 0.600481 31.9432 1.07282V4.28672C31.9432 4.40496 31.8188 4.50095 31.6655 4.50095C31.5122 4.50095 31.3878 4.40496 31.3878 4.28672L31.3875 1.07282C31.3875 0.600276 30.889 0.21589 30.2767 0.21589H29.7213C29.1087 0.21589 28.6104 0.600481 28.6104 1.07282V4.28672C28.6104 4.40496 28.486 4.50095 28.3327 4.50095C28.1794 4.50095 28.055 4.40496 28.055 4.28672L28.0545 1.07282C28.0545 0.600276 27.5559 0.21589 26.9436 0.21589H26.3882C25.7757 0.21589 25.2774 0.600481 25.2774 1.07282V6.05005C25.2774 7.52909 26.3554 8.85051 28.0548 9.49282V12.605C27.3992 11.7386 26.5618 10.9494 25.5631 10.2725L23.6106 8.01383L22.8592 8.8831C21.2004 8.25873 19.3588 7.92913 17.5005 7.92913C15.7167 7.92913 14.0003 8.21917 12.3946 8.78997C12.3322 8.7875 12.2694 8.78626 12.2059 8.78626H11.6849C9.78203 8.78626 8.21776 9.92232 8.06956 11.3612C7.65059 11.7532 7.27488 12.1686 6.94587 12.6035V9.46812C8.32481 8.83262 9.16782 7.69598 9.16782 6.44106L9.16809 3.64408C9.16809 1.75387 7.17473 0.215926 4.72418 0.215926C2.27363 0.215926 0.280273 1.75366 0.280273 3.64408V6.44148C0.280273 7.69619 1.12328 8.83288 2.50223 9.46854V25.07C2.50223 26.0151 3.49904 26.7841 4.72418 26.7841C5.94932 26.7841 6.94613 26.0151 6.94613 25.07V22.1043C9.06849 24.9013 13.0045 26.7841 17.5001 26.7841C21.9958 26.7841 25.9323 24.9011 28.0541 22.1043L28.0539 25.2843C28.0539 26.1114 28.926 26.7841 29.9981 26.7841C31.0702 26.7841 31.9423 26.1113 31.9423 25.2843V9.49296C33.6416 8.85044 34.7197 7.52923 34.7197 6.05019V1.07275C34.7197 0.600412 34.2214 0.21582 33.6088 0.21582L33.6095 0.21589ZM25.865 12.1676C26.2071 12.5635 26.3882 13.0243 26.3882 13.5002C26.3882 14.6816 25.1422 15.6427 23.6108 15.6427C22.0794 15.6427 20.8334 14.6816 20.8334 13.5002C20.8334 13.0244 21.0142 12.5637 21.3562 12.1678L23.6105 9.55889L25.865 12.1676ZM20.4318 11.6924C19.9677 12.2294 19.7223 12.8546 19.7223 13.5002C19.7223 15.1541 21.4666 16.4999 23.6108 16.4999C25.7046 16.4999 27.4165 15.2163 27.4953 13.6158C28.2205 14.7685 28.6102 16.0452 28.6102 17.3568C28.6102 19.3477 27.7255 21.1821 26.2438 22.6387L18.0557 16.3221V8.798C19.5054 8.85403 20.9313 9.12842 22.2371 9.60305L20.4318 11.6924ZM16.9447 8.79737V16.3226L14.6998 18.0544C14.7147 17.9872 14.7227 17.9184 14.7227 17.8482C14.7227 17.382 14.3868 16.9628 13.8464 16.7543L13.6119 16.6637V15.3283L15.3559 12.9739C15.6686 12.5516 15.8339 12.0715 15.8339 11.5853C15.8339 10.5754 15.1367 9.68895 14.0942 9.19662C15.0141 8.96776 15.9671 8.83428 16.9447 8.79761L16.9447 8.79737ZM10.5413 17.5202L11.3899 17.1928V15.6426H12.5008V17.1928L13.3494 17.5202C13.5112 17.5826 13.6116 17.708 13.6116 17.8475C13.6116 18.0494 13.3988 18.2135 13.1371 18.2135C12.8752 18.2135 12.6287 18.1348 12.4434 17.9917L11.9454 17.6077L11.4471 17.9919C11.2618 18.1348 11.0153 18.2137 10.7534 18.2137C10.4917 18.2137 10.2789 18.0496 10.2789 17.8477C10.2789 17.708 10.3795 17.5826 10.5413 17.5202ZM11.685 9.64323H12.206C13.5937 9.64323 14.7227 10.5144 14.7227 11.5849C14.7227 11.9221 14.6081 12.2554 14.391 12.5484L12.7341 14.7855H11.1568L9.49964 12.5484C9.28254 12.2554 9.16798 11.9224 9.16798 11.5849C9.16798 10.5143 10.297 9.64323 11.685 9.64323ZM10.2788 15.328V16.6634L10.0441 16.7539C9.50365 16.9623 9.16802 17.3815 9.16802 17.8479C9.16802 18.5223 9.87909 19.0709 10.7533 19.0709C11.1857 19.0709 11.5979 18.9703 11.9454 18.7837C12.2928 18.9703 12.7051 19.0709 13.1374 19.0709C13.2285 19.0709 13.318 19.0647 13.4047 19.0531L8.75685 22.6387C7.27509 21.1821 6.39073 19.3475 6.39073 17.3568C6.39073 15.6429 7.05803 13.9733 8.28907 12.565C8.35716 12.7057 8.43834 12.8426 8.53527 12.9737L10.2788 15.328ZM5.83493 25.0701C5.83493 25.5427 5.33638 25.9271 4.72409 25.9271C4.11152 25.9271 3.61325 25.5425 3.61325 25.0701L3.61298 8.9503L3.30589 8.83185C2.12485 8.3762 1.39101 7.46034 1.39101 6.44172V3.64432C1.39101 2.22666 2.8861 1.07331 4.7238 1.07331C6.56151 1.07331 8.0566 2.22666 8.0566 3.64432V6.44172C8.0566 7.46055 7.32283 8.37644 6.14172 8.83185L5.8349 8.9503V14.5491C5.46987 15.4516 5.27948 16.3979 5.27948 17.357C5.27948 18.3361 5.47414 19.281 5.8349 20.1694L5.83493 25.0701ZM17.5005 21.6927L18.2474 21.4047C18.5713 21.2796 18.9339 21.2137 19.2963 21.2137C20.4501 21.2135 21.3887 21.9378 21.3887 22.8279C21.3887 23.3085 21.1142 23.7604 20.6356 24.068L18.4545 25.47C18.3934 25.5093 18.2949 25.5058 18.2388 25.4624L17.5004 24.8928L16.7618 25.4626C16.7055 25.506 16.6072 25.5093 16.5461 25.4702L14.365 24.068C13.8865 23.7604 13.6119 23.3083 13.6119 22.8279C13.6119 21.9378 14.5508 21.2135 15.7044 21.2135C16.0667 21.2135 16.4293 21.2796 16.7533 21.4045L17.5005 21.6927ZM19.7552 25.7497L21.347 24.7264C22.0794 24.2555 22.4997 23.5635 22.4997 22.8279C22.4997 21.4653 21.0626 20.3566 19.2962 20.3566C18.8767 20.3566 18.4572 20.4176 18.0649 20.5328C18.1196 19.9331 18.4476 19.3749 19.004 18.9456L18.2184 18.3395C17.4508 18.932 17.0056 19.7067 16.9508 20.5373C16.5543 20.4193 16.1294 20.3566 15.7047 20.3566C13.938 20.3566 12.5009 21.4651 12.5009 22.8279C12.5009 23.5635 12.9209 24.2554 13.6536 24.7264L15.2453 25.7497C13.0074 25.3923 11.0138 24.5142 9.48744 23.2873L17.5005 17.1058L25.5136 23.2873C23.987 24.514 21.9934 25.3923 19.7554 25.7497H19.7552ZM33.6096 6.05028C33.6096 7.27593 32.6566 8.36194 31.1813 8.81699L30.8323 8.92493V25.2842C30.8323 25.6387 30.4584 25.9269 29.9991 25.9269C29.5396 25.9269 29.166 25.6385 29.166 25.2842V20.1692C29.5267 19.2805 29.7214 18.3358 29.7214 17.3567C29.7214 16.3937 29.5299 15.448 29.166 14.5482L29.1657 8.92461L28.8164 8.81688C27.3413 8.36163 26.3883 7.27561 26.3883 6.04996V1.07273H26.9437V4.28662C26.9437 4.87741 27.5667 5.35798 28.3325 5.35798C29.0983 5.35798 29.7213 4.87739 29.7213 4.28662L29.721 1.07273H30.2764V4.28662C30.2764 4.87741 30.8994 5.35798 31.6652 5.35798C32.4311 5.35798 33.054 4.87739 33.054 4.28662V1.07273H33.6094L33.6096 6.05028Z" fill="black"/>
</g>
<path d="M6.94586 6.21575V3.64474C6.94586 2.69964 5.94904 1.93066 4.72391 1.93066C3.49877 1.93066 2.50195 2.69964 2.50195 3.64474V6.21575C2.50195 7.16086 3.49877 7.92983 4.72391 7.92983C5.94904 7.92983 6.94586 7.16107 6.94586 6.21575ZM5.83475 6.21575C5.83475 6.6883 5.3362 7.07269 4.72391 7.07269C4.11134 7.07269 3.61307 6.68809 3.61307 6.21575L3.6128 3.64474C3.6128 3.17219 4.11134 2.78781 4.72364 2.78781C5.3362 2.78781 5.83448 3.1724 5.83448 3.64474L5.83475 6.21575Z" fill="black"/>
</g>
<defs>
<clipPath id="clip0_4988_470">
<rect width="35" height="27" fill="white"/>
</clipPath>
</defs>
</svg>
