<svg width="188" height="609" viewBox="0 0 188 609" fill="none" xmlns="http://www.w3.org/2000/svg">
<path d="M142.5 107.499L147.5 109.499C164.216 116.268 172.221 135.669 170 154.499C173.459 157.499 172 165.999 172 165.999C184.552 197.515 181.007 224.497 180.5 220.5C180.761 222.556 180 223.192 180 223.5C182.693 228.367 180.557 267.558 178.454 292.158C178.558 292.685 178.559 293.096 178.457 293.597C177.552 302.525 177.343 301.47 178.485 304.7C179.627 307.929 184.101 324.535 184.206 325.474C184.416 326.939 184.419 328.379 184.216 329.689C183.403 334.106 182.592 339.551 180.737 339.827C179.713 342.471 178.067 344.11 177.037 344.491C174.571 347.361 173.854 349.221 172.821 348.678C171.789 348.134 171.374 346.848 171.784 345.873C171.784 345.873 171.784 345.873 171.783 345.77C172.193 344.486 171.68 345.448 170.858 346.884C169.832 348.603 168.909 350.437 168.188 350.755C165.193 348.624 167.143 345.072 168.889 342.418C169.916 340.906 168.374 342.763 166.526 345.609C164.883 348.173 163.239 350.429 162.826 350.068C158.901 346.892 163.83 339.406 164.653 338.586C164.543 335.9 164.537 333.33 164.633 330.67C163.804 328.817 163.178 325.756 162.754 321.283C162.346 322.978 161.732 324.543 161.117 326.109C160.192 327.018 162.792 336.395 155.78 335.495C155.771 332 155.759 327.168 155.751 323.879C155.745 321.206 156.552 314.424 156.546 311.751C156.539 309.078 162.502 302.855 162.811 302.586C163.007 298.398 162.79 294.054 162.367 289.786C162.367 289.683 162.366 289.478 162.469 289.388C161.103 279.142 157.881 268.451 155.7 261.8C153.519 255.148 149.569 242.207 150.269 233.458C150.165 233.137 150.061 232.712 150.164 232.417C150.054 229.628 147 223.5 147 223.5C147 223.5 138.419 193.605 138.07 177.734C135.623 188.519 141.762 205.564 141.783 214.096C141.783 228.999 141.783 233.458 141.783 233.458C141.783 237.458 130.21 249.475 127.783 248.096C131.928 256.849 149.31 303.835 152.177 337.5C154.938 370.02 155.61 391.688 152.366 413.265C160.021 424.318 163.296 456.186 158.224 489.449C156.297 501.842 159.046 529.634 161.452 543.919C163.859 558.204 148.288 556.31 142.813 551.497C139.714 548.735 134.747 541.007 136.9 536.453C136.668 526.044 133.083 493.931 124.778 470.154C120.417 457.468 120.574 437.756 121.063 427.028C120.958 426.398 120.75 425.755 120.646 425.125C123 425.125 118 423.499 116.5 421.499C106.5 415.499 107.873 387.722 104.54 373.524C101.726 361.447 99.1155 347.855 96.5008 332.721L93.9227 332.288C93.0044 336.075 92.2925 339.992 91.7872 344.037C91.0886 353.3 103.022 372.62 89.0004 413.265C89.0153 419.227 83.4158 421.499 83.4158 421.499C83.2149 423.632 85.4901 428.003 84.9799 430.096C88.1053 443.343 84.7694 465.227 75.4345 483.555C69.2801 495.818 65.8196 513.667 68.0098 523.916C70.7023 528.886 69.4912 539.316 66.7138 541.632C61.6727 545.61 42.1764 540.128 44.512 525.937C46.8476 511.747 46.7932 489.85 42.626 472.153C38.876 456.462 40.0682 438.425 43.2162 419.302C43.2144 418.583 43.2126 417.863 43.2106 417.041C43.2016 413.443 43.2966 410.166 43.4951 407.109C41.7233 399.277 39.4389 392.612 37.0072 368.149C35.7392 355.654 37.1572 345.559 36.819 333.903C37.5502 296.281 45.12 253.507 48.5005 244.999C32.7568 236.999 36.5211 216.599 34.5005 214.096C34.5005 204.599 34.4748 224.45 35.4799 214.096C35.4799 206.154 47.1759 187.552 44.1636 178.328C43.16 189.298 29.0005 209 29.0005 209C29.0005 209 25.3916 256.902 21.7472 283.668C22.2641 284.248 22.6778 284.815 23.0915 285.382C27.5398 291.708 28.2805 299.408 25.5194 308.303C26.9707 311.572 28.0062 313.452 28.6264 314.148C30.3829 315.812 31.8243 315.072 32.3513 319.764C30.8033 319.052 29.0488 318.21 27.5006 317.395C30.9092 320.196 31.9463 322.693 30.8174 324.706L26.2739 321.554C27.4107 322.727 28.1359 324.156 28.3457 325.622C28.2461 327.048 27.837 328.332 27.1183 329.473L22.8754 322.865L17.2817 311.871L20.501 321.43C22.6735 324.586 23.8142 327.302 24.0256 329.384C24.2369 331.467 23.5181 332.608 21.6626 332.575C17.9382 327.165 15.662 323.789 14.8345 322.656C12.6596 318.574 10.7938 314.43 9.23689 310.119C8.50921 307.662 8.28867 301.879 8.57476 292.563C8.46705 290.7 8.46219 288.747 8.66383 286.923C10.2733 270.892 1.44772 245.3 3.85936 220.226C4.25955 215.344 2.11787 211.401 3.85933 207C4.26131 202.838 4.07453 197.124 3.85936 193.499C1.91056 155.945 4.41921 163.35 3.85944 145.499C3.29967 127.649 12.2163 124.262 19.0004 116.499C24.2424 110.389 38.402 99.7927 45.7219 100.218C47.1626 99.2723 48.8102 98.5587 50.458 97.9479C55.2987 96.308 60.3464 94.9001 65.3944 93.6979C71.4582 86.4598 70.3191 84.361 70.2841 70.2772C70.2486 55.9878 106.355 66.9913 106.37 73.0566C106.384 78.7106 105.268 88.611 112.501 95.4995" fill="url(#paint0_linear_5179_230)"/>
<path d="M167.822 316.69L169.01 325.93" stroke="#F29353" stroke-width="1.14" stroke-linecap="round"/>
<path d="M172.93 316.942L173.379 327.853L171.884 329.984" stroke="#F29353" stroke-width="1.14" stroke-linecap="round"/>
<path d="M178.863 313.996L178.672 324.407L176.67 328.62" stroke="#F29353" stroke-width="1.14" stroke-linecap="round"/>
<path d="M162.357 311.798L161.215 307.049L160.091 310.589" stroke="#F29353" stroke-width="1.14" stroke-linecap="round"/>
<path d="M162.471 286.036L161.338 289.8" stroke="#F29353" stroke-width="1.14" stroke-linecap="round"/>
<path d="M139.823 147.808C139.414 150.887 140.563 155.278 143.476 160.817" stroke="#EE8B48" stroke-width="1.14" stroke-linecap="round"/>
<path d="M156.27 199.095C154.218 201.477 152.681 204.251 151.761 207.337" stroke="#F29353" stroke-width="1.14" stroke-linecap="round"/>
<path d="M49.8893 418.344C48.4466 424.455 49.1895 429.486 52.0139 433.534C54.8384 437.583 56.3154 444.368 56.2365 453.874" stroke="#F08944" stroke-width="1.14" stroke-linecap="round"/>
<path d="M70.8845 417.981C72.5856 425.447 72.1791 430.715 69.5594 433.565" stroke="#F08944" stroke-width="1.14" stroke-linecap="round"/>
<path d="M50.3925 158.279C45.1818 154.821 42.8141 147.034 41.1817 146.76C39.5493 146.486 37.318 150.79 34.0622 153.402" stroke="#EE8B48" stroke-width="1.14" stroke-linecap="round"/>
<path d="M42.8013 151.889C42.9203 157.574 41.7869 163.004 39.6092 167.89" stroke="#EE8B48" stroke-width="1.14" stroke-linecap="round"/>
<path d="M45.0005 152C48.9774 157.601 55.988 159.776 68.07 160.921C80.1521 162.066 89.2871 162.114 89.9782 156.263" stroke="#EE8B48" stroke-width="1.14" stroke-linecap="round"/>
<path d="M130.614 157.605C135.808 155.266 138.132 147.949 139.764 148.031C141.396 148.112 143.653 152.932 146.926 156.272" stroke="#EE8B48" stroke-width="1.14" stroke-linecap="round"/>
<path d="M131.987 158.871C128.301 161.849 121.765 162.205 110.487 161.166C99.2081 160.126 90.6765 158.82 90.0005 155" stroke="#EE8B48" stroke-width="1.14" stroke-linecap="round"/>
<path d="M109.146 80.0586C109.569 83.0284 110.302 85.9345 111.347 88.881" stroke="#F89451" stroke-width="1.14" stroke-linecap="round"/>
<path d="M69.8595 80.9382C69.7602 83.3457 69.3457 85.7121 68.7207 87.9459" stroke="#F89451" stroke-width="1.14" stroke-linecap="round"/>
<path d="M122.36 416.628C122.169 422.791 123.523 427.607 126.525 430.984C129.527 434.362 131.71 440.625 133.282 449.903" stroke="#F08944" stroke-width="1.14" stroke-linecap="round"/>
<path d="M143.275 418.278C144.231 425.829 143.305 430.73 140.394 433.176" stroke="#F08944" stroke-width="1.14" stroke-linecap="round"/>
<path fill-rule="evenodd" clip-rule="evenodd" d="M30.6236 577.355C31.8634 582.56 36.4784 586.752 43.444 589.378C50.4095 592.003 62.8999 593.709 66.7854 592.033C70.6709 590.356 78.2289 583.295 67.4485 568.145C70.3994 560.47 75.0956 555.169 66.9855 544.155C63.4177 550.593 52.1472 545.147 43.847 540.688C41.9002 539.69 37.8385 554.138 36.5236 561.157C31.8354 570.035 28.8661 569.518 30.6236 577.355Z" fill="#C6C6C6"/>
<path fill-rule="evenodd" clip-rule="evenodd" d="M48.3926 538.976C51.5625 537.741 55.6582 538.642 58.6321 541.322C59.4524 542.029 60.7885 544.518 62.8348 544.31C66.0068 544.016 65.6929 540.952 66.8168 540.114C67.9406 539.275 71.132 547.635 68.2818 554.473C65.4316 561.311 71.4972 573.557 71.4972 573.557C71.4972 573.557 74.4973 587.901 63.8507 586.518C60.7796 586.172 60.8778 584.309 52.074 583.247C46.7508 582.602 47.8835 585.715 39.8918 581.691C31.9001 577.668 29.8387 571.197 31.3675 568.36C32.9982 565.353 36.057 560.243 37.7846 554.808C37.9683 545.437 39.7968 539.361 43.0654 536.545C43.172 538.444 44.6079 539.822 45.3246 539.947C47.5772 540.433 47.5749 539.398 48.3926 538.976Z" fill="black"/>
<path fill-rule="evenodd" clip-rule="evenodd" d="M44.5675 546.969L57.3713 553.402L47.1486 557.335L58.1102 563.543L45.8294 562.159L57.6897 558.51L46.8302 552.227L58.895 548.52L44.5675 546.969Z" stroke="white" stroke-width="1.07" stroke-linecap="round" stroke-linejoin="round"/>
<path fill-rule="evenodd" clip-rule="evenodd" d="M170.965 585.873C169.953 590.776 165.456 593.473 158.6 593.879C151.744 594.284 139.15 592.092 135.152 589.138C131.155 586.279 123.253 576.72 133.563 564.97C130.269 556.307 125.341 549.523 132.998 540.98C136.904 548.62 147.953 546.687 156.136 544.82C158.08 544.406 162.721 560.263 164.375 567.7C169.515 578.189 172.484 578.612 170.965 585.873Z" fill="#C6C6C6"/>
<path fill-rule="evenodd" clip-rule="evenodd" d="M151.669 541.578C148.389 539.317 144.295 538.981 141.434 540.738C140.616 541.253 139.393 543.2 137.344 542.374C134.169 541.071 135.288 538.073 134.16 536.938C133.032 535.803 129.159 543.111 132.247 550.879C135.437 558.664 129.832 569.052 129.832 569.052C129.832 569.052 127.406 582.528 138.155 584.49C141.227 585.024 141.12 583.221 149.822 584.922C155.146 585.941 154.129 588.769 162.108 587.245C170.086 585.721 171.71 579.806 170.066 576.515C168.318 572.924 165.029 566.813 162.969 560.82C162.334 551.319 160.272 544.576 156.887 540.794C156.788 542.655 155.46 543.645 154.846 543.538C152.594 543.335 152.49 542.284 151.669 541.578Z" fill="black"/>
<path fill-rule="evenodd" clip-rule="evenodd" d="M155.941 551.136L143.364 553.529L153.712 560.731L142.977 563.536L155.361 566.054L143.171 558.532L153.905 555.728L141.613 548.188L155.941 551.136Z" stroke="white" stroke-width="1.07" stroke-linecap="round" stroke-linejoin="round"/>
<g opacity="0.42" filter="url(#filter0_f_5179_230)">
<path fill-rule="evenodd" clip-rule="evenodd" d="M73.5535 61.4587C73.8754 67.2774 75.2433 82.2777 81.6906 86.432C88.1379 90.5863 95.7002 91.4082 99.575 88.6035C103.45 85.7989 107.201 75.0805 107.274 64.0118C108.276 56.62 70.877 53.8129 73.5535 61.4587Z" fill="#915D2E" fill-opacity="0.7"/>
</g>
<path fill-rule="evenodd" clip-rule="evenodd" d="M70.1323 57.5539C70.5533 63.663 78.7637 73.5371 82.1489 76.7383C85.5341 79.9395 94.3461 82.8628 98.2328 80.4363C102.12 78.0097 105.596 74.9503 106.411 72.8944C107.226 70.8385 109.778 66.4898 110.185 65.1477C112.857 70.159 122.757 52.514 113.95 51.9247C113.94 46.6281 114.53 33.8421 106.324 26.2123C98.1179 18.5825 87.4618 15.1453 76.3038 17.1564C65.1458 19.1674 63.1149 28.3919 65.7 41.9081C67.7498 42.828 58.014 38.7051 61.8208 48.3744C64.3904 53.5417 64.3981 57.6713 70.1323 57.5539Z" fill="#FFD4AB"/>
<path d="M114.963 50.3548C111.391 52.3422 109.556 53.9597 109.56 55.3169" stroke="#EA833E" stroke-width="1.14" stroke-linecap="round"/>
<path d="M112.299 53.6922L112.305 56.1436L109.537 59.6753" stroke="#EA833E" stroke-width="1.14" stroke-linecap="round"/>
<path d="M63.3081 50.8958C65.3532 51.7197 66.9922 53.4544 67.6104 55.4496" stroke="#EA833E" stroke-width="1.14" stroke-linecap="round"/>
<path d="M65.314 52.8499L65.8379 56.8766L68.413 59.5356" stroke="#EA833E" stroke-width="1.14" stroke-linecap="round"/>
<path opacity="0.85" fill-rule="evenodd" clip-rule="evenodd" d="M92.4075 340.369L93.3104 331.065L95.8841 331.239L96.9174 340.739C117.382 342.493 131.782 342.528 140.117 340.845C146.705 339.514 150.845 334.9 152.539 327.003C147.925 302.756 143.654 285.193 139.725 274.315C135.888 263.691 129.827 248.792 127.275 248.582C89.4122 255.716 54.1339 246.718 47.5584 242.622C45.4739 242.312 44.6075 249.15 43.2491 255.048C41.1411 264.2 36.7268 304.413 36.111 320.685C36.1447 332.572 54.9102 339.134 92.4075 340.369Z" fill="black"/>
<path opacity="0.75" fill-rule="evenodd" clip-rule="evenodd" d="M131 249.626C116.934 257.858 45.0008 248.626 50.001 244.126C39.5008 248.126 32.4726 226.193 33.0007 212.126C33.2498 205.489 48.5988 189.492 47.1422 179.45C45.8603 173.971 45.2141 169.363 45.2037 165.628C51.8151 159.053 55.1 148.298 55.0584 133.362C54.9983 111.769 50.8866 106.157 48.4187 100.287C47.8446 99.2092 50.7456 97.7306 53.9592 96.7017C57.6652 95.5151 61.5993 93.6939 62.1345 94.5749C62.1399 96.5161 69.9848 125.132 90.7829 126.882C111.581 128.632 118.051 124.397 123.563 99.5495C123.323 98.8029 126.081 99.6452 130.697 101.269C135.314 102.892 138.84 104.366 137.924 104.869C136.495 105.345 135.963 109.514 132.62 135.948C129.276 162.383 136.691 163.163 140.872 168.393C141.002 172.418 141.766 176.429 140.5 181.626C137.603 193.526 142.332 214.526 143.332 227.026C146.483 241.102 135 249.126 131 249.626Z" fill="#FFFAF9"/>
<path d="M113.674 47.9109C113.98 45.1168 114.691 43.1988 113.166 37.1306C111.282 32.0289 107.126 28.4911 107.468 22.3315C104.229 19.77 97.2439 24.6458 90.2524 25.638C83.2609 26.6302 69.4666 22.8487 70.4829 34.1424C72.0073 42.5672 69.8039 43.1351 70.4829 49.9643L67.9425 48.9376C65.91 46.3708 61.9217 33.5452 64.4399 19.7473C66.9581 5.94942 96.2254 -7.61846 109.814 16.4976C123.234 12.4976 116.53 44.8168 116.215 47.9109L113.674 47.9109Z" fill="black"/>
<defs>
<filter id="filter0_f_5179_230" x="69.4165" y="52.9209" width="41.8774" height="41.3269" filterUnits="userSpaceOnUse" color-interpolation-filters="sRGB">
<feFlood flood-opacity="0" result="BackgroundImageFix"/>
<feBlend mode="normal" in="SourceGraphic" in2="BackgroundImageFix" result="shape"/>
<feGaussianBlur stdDeviation="2" result="effect1_foregroundBlur_5179_230"/>
</filter>
<linearGradient id="paint0_linear_5179_230" x1="85.4837" y1="-27.1493" x2="24.8739" y2="653.471" gradientUnits="userSpaceOnUse">
<stop offset="0.177885" stop-color="#FFD6A7"/>
<stop offset="0.456731" stop-color="#FFCFB0"/>
<stop offset="0.961538" stop-color="#FFB783"/>
</linearGradient>
</defs>
</svg>
