<svg width="181" height="611" viewBox="0 0 181 611" fill="none" xmlns="http://www.w3.org/2000/svg">
<path d="M136.77 108.482L140.072 109.83C156.789 116.599 156.221 131.167 154 149.997C154.111 153.095 154.772 162 155.707 164.997C168.258 196.513 166.359 193.054 173.846 219.296C173.95 219.617 173.951 219.823 173.951 220.131C176.644 224.999 175.712 264.959 173.609 289.559C173.713 290.086 173.714 290.498 173.612 290.998C172.707 299.926 172.498 298.871 173.64 302.101C174.782 305.331 179.256 321.936 179.361 322.875C179.571 324.341 179.574 325.78 179.371 327.09C178.558 331.507 177.747 336.953 175.892 337.229C174.868 339.872 173.222 341.511 172.192 341.892C169.726 344.762 169.009 346.623 167.976 346.079C166.944 345.536 166.529 344.249 166.939 343.274C166.939 343.274 166.939 343.274 166.938 343.171C167.348 341.888 166.835 342.849 166.013 344.286C164.987 346.004 164.064 347.838 163.343 348.157C160.348 346.025 162.298 342.473 164.044 339.819C165.071 338.307 163.529 340.165 161.681 343.01C160.038 345.574 158.394 347.83 157.981 347.469C154.056 344.293 158.985 336.807 159.808 335.987C159.698 333.301 159.692 330.731 159.788 328.072C158.959 326.218 158.333 323.158 157.909 318.684C157.501 320.379 156.887 321.944 156.272 323.51C155.347 324.419 157.947 333.796 150.935 332.897C150.926 329.401 150.914 324.57 150.906 321.28C150.9 318.607 151.707 311.825 151.701 309.152C151.694 306.48 157.657 300.256 157.966 299.988C158.162 295.799 160.423 297.265 160 292.997C160 292.997 159.898 287.895 160 287.497C164.057 281.777 161.969 271.149 159.788 264.497C157.607 257.846 158.5 258.997 153.5 248.497C153.396 248.176 151.598 233.874 151.701 233.579C151.701 233.079 152.682 218.064 153.5 215.497C145.32 200.882 133.574 191.006 133.225 175.135C130.778 185.92 117.479 199.36 117.5 207.893C117.526 218.173 120.483 226.794 120.5 233.579C120.51 237.691 122.75 243.181 120.5 250.498C124.645 259.251 138.633 302.323 141.5 335.987C144.261 368.508 150.765 389.089 147.52 410.666C155.176 421.719 158.451 453.587 153.379 486.85C151.452 499.243 154.201 527.035 156.607 541.32C159.014 555.606 143.443 553.711 137.968 548.898C134.869 546.137 129.902 538.408 132.055 533.854C131.823 523.445 128.306 507.775 120 483.998C115.639 471.312 115.729 435.157 116.218 424.429C116.113 423.799 115.905 423.156 115.801 422.526C114.549 416.507 115.266 414.75 115.361 411.37C111.935 401.887 106.334 377.197 103 362.998C100.187 350.921 94.2705 345.256 91.6558 330.122L89.0777 329.689C88.1594 333.476 85.0054 338.965 84.5 343.01C83.8014 352.273 84.6108 363.865 70.5895 404.51C70.6044 410.472 75.3712 414.051 74.6673 421.154C74.4664 423.287 74.1622 425.303 73.652 427.396C76.7774 440.643 79.9245 462.628 70.5895 480.957C64.4351 493.219 60.9746 511.068 63.1648 521.317C65.8573 526.287 64.6462 536.717 61.8688 539.033C56.8276 543.011 37.3314 537.529 39.667 523.339C42.0027 509.148 41.9482 487.251 37.781 469.554C34.031 453.863 35.2232 435.826 38.3712 416.704C38.3694 415.984 38.3676 415.264 38.3656 414.442C38.3566 410.844 38.4516 407.568 38.6501 404.51C41.9226 396.998 42.8823 392.998 37.781 367.498C36.5129 355.003 35.8382 344.553 35.5 332.897C36.2312 295.274 39.2955 249.412 42.6761 240.904L44 239.498C43.4739 235.217 50.1136 232.226 50 227.998C49.987 222.755 52.4949 213.909 53.5 203.555C54.3055 195.848 39.0125 169.222 36.0002 159.997C34.9966 170.968 30.5929 195.319 23.5007 203.555C31.5259 238.91 16.9022 281.069 16.9022 281.069C16.9022 281.069 17.8328 282.216 18.2465 282.783C22.6948 289.109 23.4355 296.809 20.6744 305.704C22.1257 308.973 23.1612 310.853 23.7814 311.549C25.5379 313.213 26.9793 312.473 27.5063 317.165C25.9583 316.453 24.2038 315.611 22.6556 314.796C26.0643 317.597 27.1013 320.094 25.9724 322.107L21.4289 318.955C22.5657 320.129 23.2909 321.558 23.5007 323.023C23.4011 324.449 22.992 325.733 22.2733 326.874L18.0305 320.266L12.4367 309.272L15.656 318.831C17.8286 321.987 18.9692 324.703 19.1806 326.785C19.3919 328.868 18.6732 330.009 16.8176 329.976C13.0932 324.566 10.817 321.191 9.9895 320.057C7.81463 315.975 5.94884 311.831 4.39189 307.52C3.66421 305.063 3.44367 299.28 3.72977 289.965C3.62205 288.101 3.6172 286.148 3.81883 284.324C5.42831 268.293 -0.411664 249.072 2 223.998C2.4002 219.116 2.65043 212.294 4.39189 207.893C4.79388 203.731 10.2047 198.622 9.9895 194.997C8.04068 157.442 11.8623 161.108 11.3025 143.257C10.7427 125.406 10.1181 123.76 16.9022 115.997C22.1442 109.887 33.5569 97.1939 40.8769 97.6191C42.3177 96.6735 43.9652 95.9599 45.613 95.3491C50.4538 93.7092 55.5013 92.3014 60.5494 91.0991C66.6133 83.861 65.4742 81.7623 65.4392 67.6784C65.4037 53.389 101.51 64.3925 101.525 70.4578C101.539 76.1119 98.7868 88.605 106.02 95.4934" fill="url(#paint0_linear_5179_344)"/>
<path d="M163.46 318.688L164.648 327.928" stroke="#F29353" stroke-width="1.14" stroke-linecap="round"/>
<path d="M168.569 318.939L169.018 329.851L167.522 331.981" stroke="#F29353" stroke-width="1.14" stroke-linecap="round"/>
<path d="M174.502 315.993L174.31 326.404L172.308 330.618" stroke="#F29353" stroke-width="1.14" stroke-linecap="round"/>
<path d="M157.995 313.795L156.854 309.046L155.729 312.586" stroke="#F29353" stroke-width="1.14" stroke-linecap="round"/>
<path d="M158.109 288.033L156.976 291.798" stroke="#F29353" stroke-width="1.14" stroke-linecap="round"/>
<path d="M135.461 149.806C135.052 152.885 136.201 157.276 139.114 162.815" stroke="#EE8B48" stroke-width="1.14" stroke-linecap="round"/>
<path d="M151.908 201.092C149.856 203.475 148.319 206.249 147.4 209.335" stroke="#F29353" stroke-width="1.14" stroke-linecap="round"/>
<path d="M45.5275 420.341C44.0848 426.452 44.8277 431.484 47.6521 435.532C50.4766 439.58 51.9536 446.366 51.8747 455.871" stroke="#F08944" stroke-width="1.14" stroke-linecap="round"/>
<path d="M66.5227 419.978C68.2238 427.444 67.8173 432.713 65.1975 435.562" stroke="#F08944" stroke-width="1.14" stroke-linecap="round"/>
<path d="M47.3402 152.352C42.1329 150.53 39.774 147 38.1417 146.781C36.5093 146.561 34.2728 148.295 31.0135 149.23" stroke="#EE8B48" stroke-width="1.14" stroke-linecap="round"/>
<path d="M39.7553 149.109C39.8679 151.587 38.7282 153.878 36.5446 155.867" stroke="#EE8B48" stroke-width="1.14" stroke-linecap="round"/>
<path d="M40.8359 148.375C44.8176 151.383 51.8431 152.855 63.9529 154.097C76.0628 155.339 85.2195 155.871 85.9171 152.998" stroke="#EE8B48" stroke-width="1.14" stroke-linecap="round"/>
<path d="M127.667 157.108C132.866 156.811 135.201 154.851 136.833 154.995C138.465 155.14 140.716 156.711 143.984 157.926" stroke="#EE8B48" stroke-width="1.14" stroke-linecap="round"/>
<path d="M134.086 156.748C130.129 158.118 123.11 157.923 111.001 156.703C98.891 155.482 89.7306 154.282 89.0054 152.205" stroke="#EE8B48" stroke-width="1.14" stroke-linecap="round"/>
<path d="M104.785 82.0559C105.207 85.0257 105.941 87.9318 106.986 90.8784" stroke="#F89451" stroke-width="1.14" stroke-linecap="round"/>
<path d="M65.4982 82.9355C65.3989 85.343 64.9844 87.7095 64.3594 89.9432" stroke="#F89451" stroke-width="1.14" stroke-linecap="round"/>
<path d="M117.999 418.625C117.808 424.788 119.162 429.604 122.164 432.982C125.166 436.359 127.349 442.622 128.92 451.9" stroke="#F08944" stroke-width="1.14" stroke-linecap="round"/>
<path d="M138.914 420.276C139.87 427.826 138.944 432.727 136.033 435.173" stroke="#F08944" stroke-width="1.14" stroke-linecap="round"/>
<path fill-rule="evenodd" clip-rule="evenodd" d="M26.2622 579.352C27.502 584.557 32.1171 588.75 39.0826 591.375C46.0482 594.001 58.5385 595.706 62.424 594.03C66.3095 592.354 73.8676 585.293 63.0871 570.142C66.0381 562.467 70.7343 557.167 62.6242 546.152C59.0564 552.591 47.7859 547.144 39.4857 542.686C37.5388 541.688 33.4771 556.135 32.1623 563.154C27.4741 572.033 24.5048 571.516 26.2622 579.352Z" fill="#C6C6C6"/>
<path fill-rule="evenodd" clip-rule="evenodd" d="M44.0313 540.974C47.2011 539.739 51.2968 540.639 54.2708 543.32C55.0911 544.027 56.4271 546.516 58.4735 546.308C61.6455 546.013 61.3315 542.95 62.4554 542.111C63.5793 541.272 66.7707 549.632 63.9205 556.47C61.0702 563.309 67.1359 575.554 67.1359 575.554C67.1359 575.554 70.136 589.898 59.4893 588.516C56.4183 588.169 56.5165 586.306 47.7127 585.244C42.3894 584.6 43.5222 587.712 35.5305 583.688C27.5388 579.665 25.4774 573.194 27.0062 570.357C28.6369 567.35 31.6957 562.24 33.4233 556.805C33.6069 547.434 35.4354 541.358 38.7041 538.542C38.8107 540.441 40.2466 541.82 40.9632 541.944C43.2158 542.43 43.2135 541.396 44.0313 540.974Z" fill="black"/>
<path fill-rule="evenodd" clip-rule="evenodd" d="M40.2062 548.966L53.0099 555.399L42.7873 559.333L53.7489 565.54L41.4681 564.157L53.3284 560.508L42.4689 554.225L54.5337 550.517L40.2062 548.966Z" stroke="white" stroke-width="1.07" stroke-linecap="round" stroke-linejoin="round"/>
<path fill-rule="evenodd" clip-rule="evenodd" d="M166.604 587.87C165.592 592.773 161.094 595.471 154.238 595.876C147.382 596.282 134.789 594.089 130.791 591.136C126.793 588.276 118.891 578.717 129.202 566.967C125.907 558.304 120.98 551.521 128.636 542.977C132.543 550.618 143.591 548.685 151.775 546.817C153.718 546.403 158.359 562.261 160.013 569.698C165.154 580.187 168.123 580.61 166.604 587.87Z" fill="#C6C6C6"/>
<path fill-rule="evenodd" clip-rule="evenodd" d="M147.308 543.575C144.028 541.314 139.934 540.978 137.073 542.735C136.255 543.25 135.032 545.197 132.983 544.371C129.808 543.068 130.927 540.07 129.798 538.935C128.67 537.8 124.798 545.108 127.885 552.876C131.075 560.661 125.47 571.049 125.47 571.049C125.47 571.049 123.045 584.525 133.794 586.487C136.865 587.021 136.759 585.218 145.461 586.919C150.785 587.938 149.768 590.766 157.746 589.242C165.725 587.718 167.349 581.803 165.704 578.512C163.956 574.922 160.668 568.81 158.608 562.817C157.973 553.316 155.911 546.573 152.525 542.791C152.427 544.652 151.099 545.642 150.485 545.536C148.233 545.332 148.128 544.281 147.308 543.575Z" fill="black"/>
<path fill-rule="evenodd" clip-rule="evenodd" d="M151.58 553.134L139.003 555.526L149.351 562.729L138.616 565.533L151 568.051L138.809 560.53L149.544 557.725L137.251 550.186L151.58 553.134Z" stroke="white" stroke-width="1.07" stroke-linecap="round" stroke-linejoin="round"/>
<g opacity="0.42" filter="url(#filter0_f_5179_344)">
<path fill-rule="evenodd" clip-rule="evenodd" d="M68.7991 63.4118C69.1124 69.2295 70.4431 84.2255 76.7115 88.3589C82.9799 92.4922 90.3321 93.2895 94.0991 90.4723C97.8661 87.655 101.513 76.9244 101.583 65.8554C102.557 58.4603 66.1966 55.7747 68.7991 63.4118Z" fill="#915D2E" fill-opacity="0.7"/>
</g>
<path fill-rule="evenodd" clip-rule="evenodd" d="M64.8109 59.4052C65.1909 65.5079 72.5843 75.2549 75.6324 78.4037C78.6805 81.5524 86.6141 84.3392 90.1127 81.8523C93.6114 79.3653 96.7401 76.2519 97.4738 74.1833C98.2074 72.1147 100.504 67.7263 100.87 66.3778C103.276 71.3478 112.186 53.5488 104.257 53.0961C104.247 47.7995 104.776 35.0039 97.3872 27.5012C89.998 19.9984 80.4041 16.7265 70.3594 18.9107C60.3147 21.0949 58.488 30.3511 60.8178 43.8276C62.6632 44.7158 53.8978 40.7438 57.3266 50.3543C59.6409 55.4819 59.6486 59.6115 64.8109 59.4052Z" fill="#FFD4AB"/>
<path d="M83.5815 85.4912L85.8546 85.4837" stroke="#EA833E" stroke-width="1.14" stroke-linecap="round"/>
<path d="M109.058 52.1731C105.585 54.1721 103.801 55.7957 103.805 57.1528" stroke="#EA833E" stroke-width="1.14" stroke-linecap="round"/>
<path d="M106.467 55.5194L106.473 57.9708L103.782 61.5115" stroke="#EA833E" stroke-width="1.14" stroke-linecap="round"/>
<path d="M58.8379 52.8821C60.8263 53.6993 62.4198 55.4288 63.0209 57.4219" stroke="#EA833E" stroke-width="1.14" stroke-linecap="round"/>
<path d="M60.7881 54.8293L61.2977 58.8544L63.8013 61.5051" stroke="#EA833E" stroke-width="1.14" stroke-linecap="round"/>
<path d="M103.189 48.9859C103.481 46.6085 104.163 44.9766 102.692 39.814C100.874 35.474 96.8722 32.465 97.1963 27.2243C94.0781 25.0457 87.3599 29.1959 80.6328 30.0417C73.9057 30.8876 60.6287 27.6737 61.6154 37.2821C63.0889 44.4496 60.9691 44.9334 61.6279 50.7435L59.1824 49.8706C57.2246 47.6873 53.3766 36.7761 55.789 25.0362C58.2015 13.2963 86.3546 1.74548 99.4493 22.2602C112.361 18.8537 105.935 46.3527 105.634 48.9852L103.189 48.9859Z" fill="black"/>
<path opacity="0.85" fill-rule="evenodd" clip-rule="evenodd" d="M89.4707 349.292L90.3728 339.988L92.9441 340.162L93.9764 349.662C114.422 351.414 128.809 351.448 137.136 349.764C143.718 348.433 147.855 343.819 149.547 335.921C144.937 311.674 140.67 294.112 136.744 283.234C132.911 272.61 126.855 257.712 124.306 257.502C86.4779 264.639 51.2323 255.643 44.6628 251.548C42.5802 251.239 41.7147 258.077 40.3575 263.975C38.2515 273.127 33.8414 313.34 33.2262 329.612C33.2599 341.5 52.0081 348.059 89.4707 349.292Z" fill="black"/>
<path opacity="0.75" fill-rule="evenodd" clip-rule="evenodd" d="M124.386 248.624C110.319 256.855 50.5278 256.979 43.7658 248.624C39.3049 231.175 46.4885 236.296 47.0165 222.229C53.2657 217.9 50.5388 182.173 42.6225 171.497C41.3406 166.017 39.4179 167.966 39.4075 164.231C46.019 157.656 49.3039 146.901 49.2623 131.965C49.2022 110.372 45.0905 104.76 42.6225 98.8904C42.0484 97.8124 44.9495 96.3338 48.163 95.3049C51.8691 94.1183 55.8031 92.2971 56.3384 93.178C56.3438 95.1193 64.1886 123.735 84.9867 125.485C105.785 127.235 112.255 123 117.767 98.1527C117.527 97.4061 120.285 98.2484 124.901 99.8718C129.517 101.495 133.044 102.969 132.127 103.472C130.698 103.948 130.167 108.118 126.824 134.552C123.48 160.986 130.895 161.766 135.076 166.996C135.206 171.021 130.031 186.032 128.766 191.229C117.767 201.497 118.4 218.613 120.5 227.997C123.651 242.073 130.297 243.416 124.386 248.624Z" fill="#FFFAF9"/>
<defs>
<filter id="filter0_f_5179_344" x="64.666" y="54.8357" width="40.9365" height="41.3003" filterUnits="userSpaceOnUse" color-interpolation-filters="sRGB">
<feFlood flood-opacity="0" result="BackgroundImageFix"/>
<feBlend mode="normal" in="SourceGraphic" in2="BackgroundImageFix" result="shape"/>
<feGaussianBlur stdDeviation="2" result="effect1_foregroundBlur_5179_344"/>
</filter>
<linearGradient id="paint0_linear_5179_344" x1="86.7645" y1="-11.149" x2="26.1548" y2="669.471" gradientUnits="userSpaceOnUse">
<stop stop-color="#FFD6A7"/>
<stop offset="0.49" stop-color="#FFCFB0"/>
<stop offset="1" stop-color="#FFB783"/>
</linearGradient>
</defs>
</svg>
