<svg width="184" height="609" viewBox="0 0 184 609" fill="none" xmlns="http://www.w3.org/2000/svg">
<path d="M139.258 106.562L142.56 107.911C159.276 114.68 163.336 130.616 161.115 149.446C161.226 152.543 161.749 155.591 162.684 158.588C175.235 190.104 168.847 191.134 176.334 217.376C176.438 217.698 176.438 217.903 176.439 218.212C179.131 223.079 178.2 263.039 176.096 287.64C176.201 288.167 176.202 288.578 176.1 289.079C175.194 298.006 174.986 296.952 176.127 300.181C177.269 303.411 181.743 320.017 181.849 320.955C182.058 322.421 182.062 323.86 181.859 325.17C181.045 329.588 180.234 335.033 178.38 335.309C177.355 337.952 175.71 339.591 174.68 339.973C172.213 342.842 171.496 344.703 170.464 344.159C169.432 343.616 169.016 342.329 169.426 341.354C169.426 341.354 169.426 341.354 169.426 341.251C169.835 339.968 169.322 340.93 168.501 342.366C167.475 344.084 166.551 345.918 165.831 346.237C162.836 344.106 164.786 340.553 166.531 337.9C167.559 336.387 166.017 338.245 164.168 341.091C162.526 343.655 160.882 345.91 160.469 345.549C156.544 342.374 161.473 334.887 162.296 334.068C162.186 331.382 162.179 328.812 162.276 326.152C161.447 324.299 160.821 321.238 160.397 316.765C159.989 318.459 159.374 320.025 158.76 321.59C157.834 322.499 160.435 331.876 153.423 330.977C153.414 327.482 153.402 322.65 153.394 319.36C153.387 316.687 154.195 309.906 154.188 307.233C154.182 304.56 160.145 298.337 160.454 298.068C160.649 293.879 160.432 289.535 160.01 285.268C160.009 285.165 160.009 284.959 160.112 284.87C158.746 274.623 155.524 263.933 153.343 257.281C151.161 250.63 147.212 237.688 147.912 228.94C147.808 228.618 147.704 228.194 147.806 227.898C147.696 225.11 147.998 222.271 148.817 219.704C140.637 205.089 136.062 189.087 135.713 173.216C133.266 184.001 125.877 197.441 125.898 205.973C125.924 216.253 129.038 224.874 129.055 231.659C129.065 235.771 127.945 241.383 125.695 248.699C129.84 257.452 146.953 299.316 149.82 332.981C152.581 365.502 153.253 387.17 150.008 408.746C157.664 419.8 160.938 451.667 155.867 484.93C153.939 497.323 156.688 525.115 159.095 539.401C161.501 553.686 145.931 551.791 140.456 546.978C137.356 544.217 132.389 536.489 134.543 531.935C134.311 521.525 130.726 489.413 122.42 465.635C118.059 452.949 118.217 433.238 118.705 422.509C118.601 421.879 118.393 421.236 118.288 420.606C117.036 414.588 117.754 412.83 117.848 409.451C114.423 399.968 105.516 383.204 102.182 369.005C99.369 356.929 96.7581 343.337 94.1435 328.203L91.5653 327.769C90.647 331.556 89.9352 335.473 89.4298 339.519C88.7312 348.781 90.0075 364.566 75.9862 405.211C76.001 411.173 77.8589 412.131 77.1549 419.235C76.9541 421.367 76.6498 423.383 76.1396 425.476C79.265 438.723 82.4121 460.708 73.0772 479.037C66.9227 491.299 63.4622 509.148 65.6524 519.398C68.3449 524.368 67.1339 534.797 64.3564 537.113C59.3152 541.091 39.819 535.61 42.1547 521.419C44.4903 507.228 44.4359 485.331 40.2686 467.634C36.5186 451.943 37.7108 433.906 40.8588 414.784C40.857 414.064 40.8553 413.345 40.8532 412.522C40.8443 408.924 40.9392 405.648 41.1378 402.59C39.3659 394.758 37.0815 388.093 34.6498 363.631C33.3818 351.136 34.7999 341.041 34.4616 329.384C35.1928 291.762 41.7831 247.492 45.1637 238.985L45.37 239.011C44.8439 234.73 44.5238 230.373 44.4102 226.145C44.3972 220.902 47.5657 210.004 48.5708 199.65C49.3763 191.943 44.8185 183.034 41.8062 173.809C40.8026 184.78 35.3656 195.387 28.2734 203.624C36.2986 238.978 23.0343 252.383 19.3898 279.15C19.9067 279.73 20.3204 280.297 20.7342 280.864C25.1824 287.189 25.9232 294.889 23.162 303.784C24.6133 307.053 25.6488 308.933 26.269 309.63C28.0256 311.294 29.4669 310.554 29.994 315.246C28.446 314.533 26.6915 313.692 25.1432 312.876C28.5519 315.677 29.5889 318.174 28.46 320.188L23.9165 317.035C25.0534 318.209 25.7785 319.638 25.9883 321.104C25.8888 322.53 25.4796 323.813 24.7609 324.954L20.5181 318.347L14.9243 307.352L18.1436 316.911C20.3162 320.068 21.4569 322.783 21.6682 324.866C21.8795 326.948 21.1608 328.089 19.3052 328.057C15.5808 322.646 13.3046 319.271 12.4771 318.137C10.3023 314.056 8.43647 309.911 6.87952 305.601C6.15184 303.144 5.9313 297.36 6.2174 288.045C6.10968 286.181 6.10483 284.228 6.30646 282.404C7.91594 266.373 -0.909671 240.782 1.50199 215.707C1.90219 210.826 3.0242 206.037 4.76566 201.636C5.16765 197.474 7.62862 192.24 7.41345 188.615C5.46463 151.06 14.3499 159.188 13.7901 141.337C13.2304 123.487 12.0667 111.519 18.8509 103.757C24.0929 97.6463 36.0446 95.2742 43.3645 95.6994C44.8053 94.7538 46.4528 94.0402 48.1006 93.4295C52.9414 91.7895 57.989 90.3817 63.037 89.1794C69.1009 81.9413 67.9618 79.8426 67.9268 65.7587C67.8913 51.4693 103.997 62.4728 104.013 68.5381C104.027 74.1922 101.274 86.6853 108.507 93.5737" fill="url(#paint0_linear_4554_185)"/>
<path d="M165.947 316.768L167.135 326.008" stroke="#F29353" stroke-width="1.14" stroke-linecap="round"/>
<path d="M171.055 317.019L171.504 327.931L170.009 330.061" stroke="#F29353" stroke-width="1.14" stroke-linecap="round"/>
<path d="M176.988 314.073L176.797 324.484L174.795 328.698" stroke="#F29353" stroke-width="1.14" stroke-linecap="round"/>
<path d="M160.482 311.875L159.34 307.126L158.216 310.666" stroke="#F29353" stroke-width="1.14" stroke-linecap="round"/>
<path d="M160.596 286.113L159.463 289.878" stroke="#F29353" stroke-width="1.14" stroke-linecap="round"/>
<path d="M137.948 147.886C137.539 150.965 138.688 155.356 141.601 160.895" stroke="#EE8B48" stroke-width="1.14" stroke-linecap="round"/>
<path d="M154.395 199.173C152.343 201.555 150.806 204.329 149.886 207.415" stroke="#F29353" stroke-width="1.14" stroke-linecap="round"/>
<path d="M48.0143 418.421C46.5716 424.532 47.3145 429.564 50.1389 433.612C52.9634 437.66 54.4404 444.446 54.3615 453.951" stroke="#F08944" stroke-width="1.14" stroke-linecap="round"/>
<path d="M69.0095 418.058C70.7106 425.524 70.3041 430.793 67.6844 433.642" stroke="#F08944" stroke-width="1.14" stroke-linecap="round"/>
<path d="M48.518 158.356C43.3073 154.899 40.9396 147.112 39.3072 146.838C37.6748 146.564 35.4435 150.868 32.1877 153.479" stroke="#EE8B48" stroke-width="1.14" stroke-linecap="round"/>
<path d="M40.9268 151.966C41.0457 157.651 39.9124 163.082 37.7347 167.967" stroke="#EE8B48" stroke-width="1.14" stroke-linecap="round"/>
<path d="M42.0049 150.126C45.9934 156.484 53.0206 158.879 65.1303 160.027C77.24 161.174 86.3954 161.106 87.0854 154.399" stroke="#EE8B48" stroke-width="1.14" stroke-linecap="round"/>
<path d="M128.739 157.682C133.933 155.344 136.257 148.026 137.889 148.108C139.521 148.19 141.778 153.009 145.051 156.35" stroke="#EE8B48" stroke-width="1.14" stroke-linecap="round"/>
<path d="M135.152 154.819C131.204 160.525 124.188 161.634 112.079 160.517C99.9692 159.401 90.8075 157.606 90.0723 150.663" stroke="#EE8B48" stroke-width="1.14" stroke-linecap="round"/>
<path d="M107.272 80.1362C107.694 83.1061 108.428 86.0122 109.473 88.9587" stroke="#F89451" stroke-width="1.14" stroke-linecap="round"/>
<path d="M67.985 81.0158C67.8857 83.4233 67.4712 85.7898 66.8462 88.0236" stroke="#F89451" stroke-width="1.14" stroke-linecap="round"/>
<path d="M120.486 416.706C120.295 422.869 121.649 427.684 124.65 431.062C127.652 434.44 129.836 440.703 131.407 449.981" stroke="#F08944" stroke-width="1.14" stroke-linecap="round"/>
<path d="M141.401 418.356C142.357 425.907 141.431 430.807 138.519 433.253" stroke="#F08944" stroke-width="1.14" stroke-linecap="round"/>
<path fill-rule="evenodd" clip-rule="evenodd" d="M28.749 577.432C29.9889 582.637 34.6039 586.83 41.5695 589.456C48.535 592.081 61.0253 593.787 64.9108 592.11C68.7963 590.434 76.3544 583.373 65.574 568.222C68.5249 560.547 73.2211 555.247 65.111 544.233C61.5432 550.671 50.2727 545.224 41.9725 540.766C40.0257 539.768 35.964 554.215 34.6491 561.234C29.9609 570.113 26.9916 569.596 28.749 577.432Z" fill="#C6C6C6"/>
<path fill-rule="evenodd" clip-rule="evenodd" d="M46.5181 539.054C49.688 537.819 53.7837 538.72 56.7576 541.4C57.5779 542.107 58.914 544.596 60.9603 544.388C64.1323 544.094 63.8184 541.03 64.9422 540.191C66.0661 539.353 69.2575 547.712 66.4073 554.551C63.557 561.389 69.6227 573.634 69.6227 573.634C69.6227 573.634 72.6228 587.979 61.9762 586.596C58.9051 586.25 59.0033 584.386 50.1995 583.324C44.8763 582.68 46.009 585.792 38.0173 581.769C30.0256 577.745 27.9642 571.275 29.493 568.438C31.1237 565.43 34.1825 560.321 35.9101 554.886C36.0937 545.515 37.9223 539.439 41.1909 536.622C41.2975 538.522 42.7334 539.9 43.45 540.025C45.7027 540.511 45.7003 539.476 46.5181 539.054Z" fill="black"/>
<path fill-rule="evenodd" clip-rule="evenodd" d="M42.693 547.046L55.4968 553.48L45.2741 557.413L56.2357 563.62L43.9549 562.237L55.8152 558.588L44.9557 552.305L57.0205 548.598L42.693 547.046Z" stroke="white" stroke-width="1.07" stroke-linecap="round" stroke-linejoin="round"/>
<path fill-rule="evenodd" clip-rule="evenodd" d="M169.091 585.95C168.078 590.853 163.581 593.551 156.725 593.956C149.869 594.362 137.276 592.169 133.278 589.216C129.28 586.356 121.378 576.797 131.689 565.047C128.394 556.385 123.467 549.601 131.123 541.057C135.029 548.698 146.078 546.765 154.262 544.897C156.205 544.483 160.846 560.341 162.5 567.778C167.641 578.267 170.61 578.69 169.091 585.95Z" fill="#C6C6C6"/>
<path fill-rule="evenodd" clip-rule="evenodd" d="M149.795 541.655C146.515 539.395 142.421 539.059 139.559 540.815C138.742 541.33 137.518 543.278 135.47 542.452C132.295 541.149 133.413 538.151 132.285 537.015C131.157 535.88 127.285 543.189 130.372 550.956C133.562 558.741 127.957 569.129 127.957 569.129C127.957 569.129 125.531 582.605 136.281 584.568C139.352 585.102 139.246 583.299 147.948 585C153.272 586.019 152.255 588.847 160.233 587.323C168.212 585.799 169.836 579.883 168.191 576.593C166.443 573.002 163.155 566.89 161.095 560.898C160.459 551.397 158.398 544.653 155.012 540.872C154.914 542.733 153.586 543.723 152.972 543.616C150.72 543.413 150.615 542.361 149.795 541.655Z" fill="black"/>
<path fill-rule="evenodd" clip-rule="evenodd" d="M154.067 551.214L141.489 553.606L151.838 560.809L141.103 563.613L153.486 566.132L141.296 558.61L152.031 555.805L139.738 548.266L154.067 551.214Z" stroke="white" stroke-width="1.07" stroke-linecap="round" stroke-linejoin="round"/>
<g opacity="0.42" filter="url(#filter0_f_4554_185)">
<path fill-rule="evenodd" clip-rule="evenodd" d="M71.6785 61.5363C72.0004 67.355 73.3683 82.3554 79.8156 86.5096C86.2629 90.6639 93.8252 91.4858 97.7 88.6812C101.575 85.8765 105.326 75.1582 105.399 64.0895C106.401 56.6976 69.002 53.8905 71.6785 61.5363Z" fill="#915D2E" fill-opacity="0.7"/>
</g>
<path fill-rule="evenodd" clip-rule="evenodd" d="M68.2573 57.6316C68.6783 63.7406 76.8887 73.6148 80.2739 76.8159C83.6591 80.0171 92.4711 82.9405 96.3578 80.5139C100.245 78.0874 103.721 75.0279 104.536 72.972C105.351 70.9161 107.903 66.5675 108.31 65.2253C110.982 70.2366 120.882 52.5917 112.075 52.0024C112.065 46.7058 112.655 33.9197 104.449 26.2899C96.2429 18.6601 85.5868 15.223 74.4288 17.234C63.2708 19.2451 61.2399 28.4695 63.825 41.9857C65.8748 42.9057 56.139 38.7828 59.9458 48.4521C62.5154 53.6194 62.5231 57.7489 68.2573 57.6316Z" fill="#FFD4AB"/>
<path d="M113.088 50.4324C109.516 52.4198 107.681 54.0374 107.685 55.3946" stroke="#EA833E" stroke-width="1.14" stroke-linecap="round"/>
<path d="M110.424 53.7696L110.43 56.221L107.662 59.7527" stroke="#EA833E" stroke-width="1.14" stroke-linecap="round"/>
<path d="M61.4331 50.9734C63.4782 51.7973 65.1172 53.5321 65.7354 55.5272" stroke="#EA833E" stroke-width="1.14" stroke-linecap="round"/>
<path d="M63.439 52.9272L63.9629 56.9539L66.538 59.613" stroke="#EA833E" stroke-width="1.14" stroke-linecap="round"/>
<path opacity="0.75" fill-rule="evenodd" clip-rule="evenodd" d="M126.484 241.942C112.417 250.173 53.0202 244.018 46.2582 235.663C41.7972 218.214 48.5864 208.443 49.1145 194.376C49.3637 187.739 44.9006 181.413 43.444 171.371C42.1621 165.892 41.5159 161.284 41.5055 157.549C48.1169 150.974 51.4018 140.219 51.3603 125.283C51.3001 103.69 47.1884 98.078 44.7205 92.2082C44.1464 91.1301 47.0474 89.6515 50.261 88.6226C53.967 87.436 57.9011 85.6148 58.4363 86.4958C58.4417 88.437 66.2866 117.053 87.0847 118.803C107.883 120.553 114.353 116.318 119.865 91.4705C119.625 90.7238 122.383 91.5661 126.999 93.1896C131.615 94.813 135.142 96.2867 134.225 96.7901C132.796 97.2661 132.265 101.435 128.922 127.869C125.578 154.304 132.993 155.084 137.174 160.314C137.304 164.339 136.736 168.95 135.471 174.148C128.884 188.912 126.641 200.986 128.742 210.37C131.892 224.445 132.395 236.734 126.484 241.942Z" fill="#FFFAF9"/>
<path opacity="0.85" fill-rule="evenodd" clip-rule="evenodd" d="M90.533 340.446L91.4359 331.143L94.0096 331.316L95.0429 340.817C115.508 342.57 129.908 342.605 138.243 340.922C144.83 339.592 148.971 334.978 150.665 327.08C146.051 302.833 141.779 285.27 137.851 274.392C134.013 263.768 127.953 248.869 125.401 248.659C87.5377 255.793 52.2594 246.795 45.6839 242.699C43.5994 242.389 42.733 249.228 41.3746 255.125C39.2666 264.277 34.8523 304.49 34.2365 320.762C34.2702 332.649 53.0357 339.211 90.533 340.446Z" fill="black"/>
<path d="M111.799 47.988C112.105 45.1939 112.816 43.276 111.291 37.2077C109.407 32.1061 105.251 28.5683 105.593 22.4086C102.354 19.8471 95.3689 24.723 88.3774 25.7152C81.3859 26.7073 67.5916 22.9258 68.6079 34.2195C70.1323 42.6443 67.9289 43.2123 68.6079 50.0414L66.0675 49.0147C64.035 46.448 60.0467 33.6223 62.5649 19.8244C65.0831 6.02657 94.3504 -7.54131 107.939 16.5747C121.359 12.5748 114.655 44.894 114.34 47.988L111.799 47.988Z" fill="black"/>
<defs>
<filter id="filter0_f_4554_185" x="67.5415" y="52.9985" width="41.8774" height="41.3269" filterUnits="userSpaceOnUse" color-interpolation-filters="sRGB">
<feFlood flood-opacity="0" result="BackgroundImageFix"/>
<feBlend mode="normal" in="SourceGraphic" in2="BackgroundImageFix" result="shape"/>
<feGaussianBlur stdDeviation="2" result="effect1_foregroundBlur_4554_185"/>
</filter>
<linearGradient id="paint0_linear_4554_185" x1="89.2518" y1="-13.0687" x2="28.642" y2="667.551" gradientUnits="userSpaceOnUse">
<stop stop-color="#FFD6A7"/>
<stop offset="0.49" stop-color="#FFCFB0"/>
<stop offset="1" stop-color="#FFB783"/>
</linearGradient>
</defs>
</svg>
